<svg width="163" height="178" viewBox="0 0 163 178" fill="none" xmlns="http://www.w3.org/2000/svg">
<mask id="mask0_17_291" style="mask-type:luminance" maskUnits="userSpaceOnUse" x="0" y="0" width="163" height="178">
<path d="M162.545 0.0576782H0.919373V177.076H162.545V0.0576782Z" fill="white"/>
</mask>
<g mask="url(#mask0_17_291)">
<path d="M81.7324 7.68967C83.582 7.68918 85.3998 8.16532 87.0013 9.07014L149.474 44.3546C151.076 45.2595 152.406 46.5609 153.331 48.1281C154.256 49.6953 154.743 51.4731 154.743 53.2827V123.852C154.743 125.661 154.256 127.438 153.331 129.006C152.406 130.573 151.076 131.874 149.474 132.779L87.0013 168.063C85.399 168.968 83.582 169.445 81.732 169.445C79.8821 169.445 78.0648 168.968 76.4627 168.063L13.9899 132.779C12.388 131.874 11.0576 130.573 10.1328 129.006C9.20792 127.438 8.72101 125.661 8.72106 123.852V53.2827C8.72103 51.4731 9.20792 49.6953 10.1328 48.1281C11.0577 46.5609 12.388 45.2595 13.9899 44.3546L76.4627 9.07014C78.065 8.1654 79.8825 7.68926 81.7324 7.68967ZM81.7324 0.0576782C78.5134 0.058908 75.3511 0.887832 72.5627 2.46137L10.0891 37.7458C7.30462 39.3242 4.99228 41.5898 3.38316 44.3162C1.77404 47.0427 0.924485 50.1345 0.919373 53.2827V123.852C0.92465 127 1.77438 130.092 3.38363 132.818C4.99289 135.545 7.30534 137.81 10.0899 139.388L72.5627 174.673C75.3508 176.248 78.5133 177.076 81.7324 177.076C84.9517 177.076 88.114 176.248 90.9022 174.673L153.375 139.388C156.16 137.811 158.473 135.545 160.083 132.819C161.692 130.092 162.542 127 162.548 123.852V53.2827C162.543 50.1345 161.693 47.0427 160.084 44.3163C158.475 41.5899 156.162 39.3242 153.378 37.7458L90.9054 2.46137C88.1173 0.887936 84.9549 0.05902 81.7357 0.0576782H81.7324Z" fill="#2F45CF"/>
</g>
<path d="M82.5936 35.4701C104.748 35.7902 122.61 53.8449 122.61 76.0756L122.596 77.1244C122.04 99.0705 104.075 116.691 81.9949 116.691L80.9471 116.677C59.0008 116.121 41.3807 98.1558 41.3807 76.0756C41.3807 73.6922 41.5874 71.357 41.9813 69.0863L41.9842 69.2806L42.66 69.2728C42.2803 71.4836 42.0809 73.7564 42.0809 76.0756C42.0809 98.1196 59.951 115.99 81.9949 115.991C104.039 115.991 121.91 98.1197 121.91 76.0756C121.91 54.2344 104.366 36.494 82.6024 36.1693L82.5936 35.4701ZM83.6873 106.536C84.6218 106.536 85.3795 107.294 85.3797 108.229C85.3797 109.163 84.6219 109.921 83.6873 109.921C82.753 109.921 81.995 109.163 81.9949 108.229C81.9951 107.295 82.7531 106.537 83.6873 106.536ZM64.9656 103.215C67.0118 104.969 70.0022 105.066 72.158 103.45L87.3397 92.0629C88.2096 91.4104 89.2352 90.9957 90.3143 90.8607L101.24 89.4955C101.951 89.4066 102.673 89.4407 103.372 89.5961L117.588 92.7552L117.533 92.9994L117.479 93.2426L103.263 90.0844C102.619 89.9415 101.956 89.9099 101.303 89.9916L90.3768 91.3568C89.384 91.481 88.4399 91.862 87.6395 92.4623L72.4578 103.849C71.8256 104.323 71.1264 104.659 70.4002 104.864C71.2159 104.985 71.8415 105.687 71.8416 106.536C71.8416 107.471 71.0846 108.229 70.1502 108.229C69.2157 108.229 68.4579 107.471 68.4578 106.536C68.4579 105.909 68.7997 105.361 69.3074 105.069C67.6603 105.227 65.9677 104.732 64.6404 103.595L44.6024 86.4193L44.9285 86.0404L64.9656 103.215ZM103.995 99.767C104.929 99.767 105.687 100.525 105.687 101.459C105.687 102.394 104.929 103.152 103.995 103.152C103.06 103.152 102.303 102.394 102.303 101.459C102.303 100.525 103.061 99.7671 103.995 99.767ZM93.8416 96.3832C94.7759 96.3834 95.5338 97.1413 95.534 98.0756C95.534 99.01 94.776 99.7678 93.8416 99.7679C92.9071 99.7678 92.1493 99.0101 92.1492 98.0756C92.1495 97.1412 92.9072 96.3833 93.8416 96.3832ZM59.9959 82.8451C60.9305 82.8451 61.6882 83.603 61.6883 84.5375C61.688 85.4719 60.9304 86.2289 59.9959 86.2289H56.6111C55.6769 86.2286 54.919 85.4717 54.9188 84.5375C54.9189 83.6031 55.6768 82.8454 56.6111 82.8451H59.9959ZM73.534 82.8451C74.4685 82.8451 75.2263 83.603 75.2264 84.5375C75.2261 85.4719 74.4684 86.2289 73.534 86.2289H70.1492C69.2151 86.2285 68.4581 85.4717 68.4578 84.5375C68.4579 83.6032 69.215 82.8454 70.1492 82.8451H73.534ZM90.4568 82.8451C91.3914 82.8451 92.1491 83.603 92.1492 84.5375C92.149 85.4719 91.3913 86.2289 90.4568 86.2289H87.0721C86.1379 86.2286 85.38 85.4717 85.3797 84.5375C85.3798 83.6031 86.1378 82.8454 87.0721 82.8451H90.4568ZM107.38 82.8451C108.314 82.8451 109.072 83.603 109.072 84.5375C109.072 85.4718 108.314 86.2288 107.38 86.2289H103.995C103.061 86.2287 102.303 85.4717 102.303 84.5375C102.303 83.6031 103.061 82.8453 103.995 82.8451H107.38ZM64.3084 49.5502C66.4406 49.4165 68.5693 49.8478 70.3904 50.7816C72.2115 51.7154 73.6329 53.104 74.451 54.7504C74.6811 55.21 74.9348 55.2584 75.4442 55.3529L75.742 55.4115C77.6411 55.8429 79.2924 56.8107 80.4246 58.1381L81.3992 55.1547C81.7748 54.1469 82.8526 53.5018 84.1053 53.4857H84.1404C85.4075 53.4809 86.4973 54.1219 86.8533 55.0785L93.6238 75.726H93.952L100.016 58.098C100.393 57.1353 101.4 56.5145 102.599 56.4623C103.843 56.3934 104.881 56.9383 105.352 57.8099L108.699 64.9476C108.998 65.5789 109.772 65.9976 110.628 65.9867L117.615 65.8324C118.74 65.818 119.658 66.5258 119.67 67.4115C119.681 68.297 118.781 69.027 117.656 69.0414L110.667 69.1957C108.096 69.2285 105.774 67.9757 104.881 66.0775L102.919 61.889L96.4783 80.6107C96.0824 81.6188 95.0212 82.2772 93.7313 82.2504C92.4742 82.2488 91.3919 81.6101 91.0359 80.6615L89.6473 76.4252H44.7654V75.726H89.4178L84.1375 59.6205L82.0584 65.9965C81.3712 68.104 78.9682 69.6017 76.2127 69.6371L71.1971 69.7006C70.6686 69.7073 70.1858 69.5532 69.8201 69.2972C68.311 69.3023 66.5818 69.307 64.8885 69.307C61.572 69.307 58.3957 69.2953 57.2889 69.2699C56.8124 69.2574 56.3389 69.2008 55.8777 69.1C54.6959 68.8271 53.6442 68.2552 52.869 67.4633C52.0938 66.6714 51.633 65.6977 51.5496 64.6781C51.4663 63.6586 51.7651 62.643 52.4041 61.7709C53.0432 60.8986 53.9915 60.2129 55.118 59.809C54.8151 58.5341 54.8474 57.2196 55.2137 55.9564C55.7271 54.2266 56.8834 52.6761 58.5164 51.5258C60.1494 50.3755 62.1763 49.6839 64.3084 49.5502ZM65.0408 52.3519C64.7073 52.3519 64.3738 52.3721 64.0438 52.4125C63.1333 52.5279 62.2604 52.7969 61.4793 53.2035C60.6984 53.61 60.0256 54.1456 59.5018 54.7767C58.9779 55.4079 58.6143 56.1219 58.4334 56.8744C58.2525 57.627 58.2583 58.403 58.45 59.1537C58.6254 59.8034 58.5217 60.484 58.157 61.0765C57.7922 61.6693 57.1888 62.1367 56.4529 62.3969C55.8805 62.5985 55.4168 62.9687 55.1512 63.4369C54.8857 63.905 54.8363 64.4384 55.0125 64.9349C55.1283 65.2775 55.3481 65.5896 55.6502 65.8412C55.9525 66.0928 56.3277 66.2763 56.7391 66.3724C56.95 66.4199 57.1672 66.4466 57.3856 66.4525C59.6572 66.5033 70.829 66.4948 73.6297 66.4525C74.004 66.4462 74.3771 66.4079 74.742 66.3383C75.6439 66.1583 76.469 65.7745 77.1258 65.2289C77.7826 64.6832 78.2459 63.9966 78.4647 63.2455C78.7756 62.1705 78.5733 61.0363 77.9002 60.0834C77.2271 59.1304 76.1351 58.4332 74.8563 58.1381L74.701 58.1078C73.9483 58.0081 73.2399 57.7464 72.6463 57.348C72.0526 56.9495 71.5945 56.4281 71.3172 55.8363C70.8014 54.8035 69.9294 53.9214 68.8123 53.3011C67.6954 52.681 66.383 52.3508 65.0408 52.3519ZM59.9949 35.4613C60.4436 35.4614 60.874 35.61 61.1912 35.8744C61.5085 36.1388 61.6863 36.4975 61.6863 36.8715V41.9164C62.4897 42.0208 63.2759 42.2032 64.0281 42.4603L67.1131 38.0677C67.2254 37.9079 67.3745 37.7675 67.5516 37.6556C67.7288 37.5437 67.9312 37.4623 68.1463 37.4154C68.3613 37.3685 68.5853 37.3569 68.8055 37.3822C69.0256 37.4075 69.2377 37.4693 69.4295 37.5629C69.6213 37.6564 69.7894 37.7805 69.9236 37.9281C70.0579 38.0757 70.1564 38.244 70.2127 38.4232C70.269 38.6025 70.2821 38.7895 70.2518 38.973C70.2214 39.1566 70.1483 39.3336 70.0359 39.4935L66.9168 43.9301C67.6394 44.3165 68.1305 45.3399 69.0662 44.9408L73.532 42.473C73.717 42.3613 73.9275 42.2818 74.1502 42.2396C74.3728 42.1975 74.6033 42.1938 74.8279 42.2279C75.0527 42.2621 75.2672 42.3338 75.4578 42.4388C75.6483 42.5438 75.8116 42.6794 75.9373 42.8383C76.0631 42.9972 76.1495 43.1763 76.1902 43.3636C76.2309 43.5509 76.2255 43.7435 76.1746 43.9291C76.1238 44.1147 76.0276 44.2897 75.8934 44.4437C75.7591 44.5977 75.5893 44.7279 75.3934 44.8256L70.8514 47.3353C70.0137 47.7592 69.026 47.9284 68.0555 47.8148C67.085 47.7012 66.1914 47.312 65.5262 46.7123C64.8101 46.0777 63.9509 45.567 62.9979 45.2094C62.0446 44.8517 61.0154 44.6544 59.9705 44.6283C57.9746 44.7004 56.0845 45.3964 54.6776 46.5785C53.2705 47.7608 52.4498 49.3421 52.3797 51.0062C52.3731 51.6169 52.4822 52.2247 52.7029 52.807C52.9678 53.5769 52.9048 54.3993 52.5252 55.1351C52.1456 55.871 51.4727 56.4756 50.6199 56.8451L46.1033 59.0873C45.8419 59.217 45.5433 59.2852 45.2391 59.2855C44.8682 59.2861 44.507 59.1855 44.2117 58.9984C43.9164 58.8112 43.7028 58.5475 43.6043 58.2494C43.506 57.9514 43.5281 57.6346 43.6668 57.348C43.8056 57.0613 44.0538 56.8202 44.3729 56.6625L48.9568 54.389C49.1314 54.3278 49.276 54.2194 49.368 54.0814C49.4599 53.9435 49.4945 53.7841 49.4647 53.6283C49.3169 53.2208 49.2034 52.8049 49.1258 52.3842H43.0731C42.6244 52.3842 42.1941 52.2354 41.8768 51.9711C41.5595 51.7066 41.3807 51.348 41.3807 50.974C41.3807 50.6 41.5594 50.2414 41.8768 49.9769C42.1941 49.7125 42.6243 49.5638 43.0731 49.5638H49.1229C49.2477 48.8866 49.4669 48.2237 49.7772 47.5892L44.5692 45.0511C44.3697 44.961 44.194 44.8377 44.0526 44.6898C43.9112 44.542 43.8069 44.3719 43.7459 44.1898C43.6851 44.0078 43.668 43.8176 43.6971 43.6302C43.7262 43.4429 43.8004 43.2621 43.9149 43.099C44.0295 42.9358 44.1831 42.793 44.3651 42.6801C44.5469 42.5672 44.7542 42.4866 44.9744 42.4418C45.1947 42.397 45.4235 42.389 45.6473 42.4193C45.8712 42.4497 46.0862 42.5177 46.2781 42.6185L51.5233 45.1761C52.0059 44.6938 52.5453 44.2532 53.1326 43.8597L50.0281 39.4857C49.9149 39.3264 49.8399 39.1505 49.8084 38.9672C49.7769 38.7838 49.7885 38.5968 49.8436 38.4174C49.9548 38.0549 50.2347 37.7438 50.6209 37.5531C51.007 37.3625 51.4683 37.3081 51.9031 37.4008C52.338 37.4935 52.7114 37.7264 52.9402 38.0482L56.0584 42.432C56.7825 42.1957 57.535 42.0243 58.3026 41.9203V36.8715C58.3026 36.4976 58.4805 36.1388 58.7977 35.8744C59.115 35.6099 59.5461 35.4613 59.9949 35.4613Z" fill="#2F45CF"/>
<path d="M129.287 136.615V131.826C129.287 131.372 129.246 130.935 129.163 130.516C129.086 130.097 128.948 129.723 128.747 129.392C128.552 129.056 128.287 128.79 127.95 128.596C127.62 128.401 127.201 128.304 126.694 128.304C126.298 128.304 125.938 128.371 125.614 128.507C125.295 128.637 125.021 128.838 124.791 129.109C124.56 129.38 124.38 129.723 124.251 130.136C124.127 130.543 124.065 131.024 124.065 131.578L123.029 131.26C123.029 130.333 123.194 129.54 123.525 128.879C123.861 128.212 124.33 127.702 124.932 127.348C125.54 126.988 126.254 126.808 127.074 126.808C127.694 126.808 128.222 126.905 128.658 127.1C129.095 127.295 129.458 127.554 129.747 127.879C130.036 128.197 130.263 128.557 130.429 128.958C130.594 129.354 130.709 129.758 130.774 130.171C130.845 130.578 130.88 130.965 130.88 131.331V136.615H129.287ZM122.472 136.615V123.869H123.888V130.906H124.065V136.615H122.472Z" fill="#3AA697"/>
<path d="M120.54 136.614C119.973 136.727 119.413 136.771 118.858 136.747C118.309 136.73 117.82 136.62 117.389 136.42C116.958 136.213 116.631 135.895 116.406 135.464C116.218 135.086 116.114 134.706 116.097 134.322C116.085 133.933 116.079 133.493 116.079 133.003V124.4H117.654V132.933C117.654 133.322 117.657 133.655 117.663 133.933C117.675 134.21 117.737 134.449 117.849 134.65C118.062 135.027 118.398 135.249 118.858 135.313C119.324 135.378 119.885 135.361 120.54 135.26V136.614ZM114.141 128.357V127.056H120.54V128.357H114.141Z" fill="#3AA697"/>
<path d="M110.971 136.615V123.604H112.547V136.615H110.971Z" fill="#3AA697"/>
<path d="M103.554 136.88C102.841 136.88 102.242 136.75 101.758 136.491C101.28 136.225 100.917 135.877 100.669 135.446C100.427 135.015 100.306 134.543 100.306 134.03C100.306 133.528 100.401 133.095 100.589 132.729C100.784 132.357 101.056 132.05 101.404 131.808C101.752 131.561 102.168 131.366 102.652 131.224C103.106 131.1 103.614 130.994 104.174 130.906C104.741 130.811 105.313 130.726 105.891 130.649C106.469 130.572 107.009 130.499 107.511 130.428L106.944 130.755C106.962 129.905 106.791 129.277 106.431 128.87C106.077 128.463 105.463 128.259 104.59 128.259C104.012 128.259 103.504 128.392 103.068 128.658C102.637 128.917 102.333 129.342 102.156 129.932L100.66 129.481C100.89 128.643 101.336 127.985 101.997 127.507C102.658 127.029 103.528 126.79 104.608 126.79C105.475 126.79 106.219 126.946 106.838 127.259C107.464 127.566 107.912 128.032 108.184 128.658C108.319 128.953 108.405 129.274 108.44 129.622C108.476 129.965 108.493 130.324 108.493 130.702V136.614H107.095V134.322L107.422 134.535C107.062 135.308 106.558 135.892 105.909 136.287C105.266 136.682 104.481 136.88 103.554 136.88ZM103.793 135.561C104.36 135.561 104.85 135.461 105.263 135.26C105.682 135.054 106.018 134.785 106.272 134.455C106.525 134.119 106.691 133.753 106.767 133.357C106.856 133.062 106.903 132.735 106.909 132.375C106.921 132.009 106.927 131.729 106.927 131.534L107.475 131.773C106.962 131.844 106.458 131.912 105.962 131.977C105.466 132.042 104.997 132.112 104.555 132.189C104.112 132.26 103.714 132.345 103.36 132.446C103.1 132.528 102.855 132.635 102.625 132.764C102.401 132.894 102.218 133.062 102.076 133.269C101.941 133.469 101.873 133.72 101.873 134.021C101.873 134.281 101.938 134.529 102.068 134.765C102.203 135.001 102.41 135.192 102.687 135.34C102.97 135.487 103.339 135.561 103.793 135.561Z" fill="#3AA697"/>
<path d="M94.6937 136.88C93.7555 136.88 92.9353 136.673 92.2332 136.26C91.5369 135.842 90.994 135.26 90.6046 134.517C90.2152 133.767 90.0204 132.894 90.0204 131.897C90.0204 130.853 90.2122 129.95 90.5958 129.189C90.9793 128.421 91.5133 127.831 92.1978 127.418C92.8881 126.999 93.6965 126.79 94.6229 126.79C95.5847 126.79 96.4019 127.011 97.0746 127.454C97.7532 127.896 98.2606 128.528 98.597 129.348C98.9392 130.168 99.0867 131.145 99.0395 132.278H97.4464V131.711C97.4287 130.537 97.1897 129.661 96.7294 129.082C96.2692 128.498 95.5847 128.206 94.676 128.206C93.7024 128.206 92.9619 128.519 92.4544 129.144C91.947 129.77 91.6933 130.667 91.6933 131.835C91.6933 132.962 91.947 133.835 92.4544 134.455C92.9619 135.074 93.6847 135.384 94.6229 135.384C95.2543 135.384 95.803 135.24 96.2692 134.951C96.7353 134.661 97.1012 134.245 97.3667 133.703L98.8802 134.225C98.5085 135.069 97.9479 135.723 97.1985 136.19C96.4551 136.65 95.6201 136.88 94.6937 136.88ZM91.1622 132.278V131.012H98.2252V132.278H91.1622Z" fill="#3AA697"/>
<path d="M86.6572 136.615V131.826C86.6572 131.372 86.6159 130.935 86.5333 130.516C86.4566 130.097 86.318 129.723 86.1173 129.392C85.9226 129.056 85.6571 128.79 85.3208 128.596C84.9903 128.401 84.5714 128.304 84.0639 128.304C83.6686 128.304 83.3086 128.371 82.9841 128.507C82.6655 128.637 82.3911 128.838 82.161 129.109C81.9309 129.38 81.7509 129.723 81.6211 130.136C81.4972 130.543 81.4352 131.024 81.4352 131.578L80.3997 131.26C80.3997 130.333 80.5649 129.54 80.8953 128.879C81.2316 128.212 81.7007 127.702 82.3026 127.348C82.9104 126.988 83.6243 126.808 84.4445 126.808C85.0641 126.808 85.5922 126.905 86.0288 127.1C86.4655 127.295 86.8284 127.554 87.1175 127.879C87.4066 128.197 87.6338 128.557 87.799 128.958C87.9642 129.354 88.0793 129.758 88.1442 130.171C88.215 130.578 88.2504 130.965 88.2504 131.331V136.615H86.6572ZM79.842 136.615V123.869H81.2582V130.906H81.4352V136.615H79.842Z" fill="#3AA697"/>
<path d="M74.8111 136.615V134.269H68.9518V132.773L73.156 123.869H74.9439L70.7397 132.773H74.8111V129.189H76.4043V132.773H77.7319V134.269H76.4043V136.615H74.8111Z" fill="#3AA697"/>
<path d="M65.4162 136.615L65.4251 130.499C65.4251 129.785 65.2333 129.227 64.8498 128.826C64.4721 128.419 63.9794 128.215 63.3716 128.215C63.0176 128.215 62.6813 128.298 62.3626 128.463C62.044 128.622 61.7844 128.876 61.5838 129.224C61.3831 129.566 61.2828 130.006 61.2828 130.543L60.4508 130.206C60.439 129.528 60.5777 128.935 60.8668 128.427C61.1619 127.914 61.5631 127.516 62.0706 127.233C62.578 126.949 63.1504 126.808 63.7876 126.808C64.7848 126.808 65.5696 127.112 66.142 127.719C66.7143 128.321 67.0005 129.133 67.0005 130.153L66.9917 136.615H65.4162ZM53.9808 136.615V127.056H55.3881V129.613H55.5651V136.615H53.9808ZM59.7074 136.615L59.7162 130.561C59.7162 129.829 59.5274 129.256 59.1498 128.843C58.7721 128.425 58.2706 128.215 57.6451 128.215C57.0255 128.215 56.524 128.427 56.1405 128.852C55.7569 129.277 55.5651 129.841 55.5651 130.543L54.7332 130.047C54.7332 129.428 54.8807 128.873 55.1757 128.383C55.4707 127.893 55.872 127.51 56.3794 127.233C56.8869 126.949 57.4622 126.808 58.1054 126.808C58.7485 126.808 59.3091 126.943 59.787 127.215C60.265 127.486 60.6338 127.876 60.8934 128.383C61.153 128.885 61.2828 129.484 61.2828 130.18L61.274 136.615H59.7074Z" fill="#3AA697"/>
<path d="M49.7585 125.365V123.736H51.3339V125.365H49.7585ZM49.7585 136.615V127.056H51.3339V136.615H49.7585Z" fill="#3AA697"/>
<path d="M45.3503 136.615V123.604H46.9258V136.615H45.3503Z" fill="#3AA697"/>
<path d="M39.5371 136.88C38.5694 136.88 37.7463 136.665 37.0677 136.234C36.395 135.797 35.8817 135.198 35.5276 134.437C35.1736 133.676 34.9907 132.809 34.9789 131.835C34.9907 130.838 35.1766 129.962 35.5365 129.206C35.9023 128.445 36.4245 127.852 37.1031 127.427C37.7817 127.002 38.5989 126.79 39.5548 126.79C40.5638 126.79 41.4312 127.038 42.157 127.533C42.8886 128.029 43.3784 128.708 43.6262 129.569L42.0685 130.038C41.8678 129.484 41.5404 129.053 41.086 128.746C40.6376 128.439 40.1213 128.286 39.5371 128.286C38.8821 128.286 38.3422 128.439 37.9174 128.746C37.4925 129.047 37.1769 129.466 36.9703 130.003C36.7638 130.534 36.6576 131.145 36.6517 131.835C36.6635 132.897 36.9084 133.756 37.3863 134.411C37.8702 135.06 38.5871 135.384 39.5371 135.384C40.1626 135.384 40.6818 135.243 41.0949 134.959C41.5079 134.67 41.8206 134.254 42.0331 133.711L43.6262 134.127C43.2958 135.018 42.7795 135.7 42.0773 136.172C41.3751 136.644 40.5284 136.88 39.5371 136.88Z" fill="#3AA697"/>
</svg>
