<svg width="165" height="184" viewBox="0 0 165 184" fill="none" xmlns="http://www.w3.org/2000/svg">
<g clip-path="url(#clip0_17_290)">
<mask id="mask0_17_290" style="mask-type:luminance" maskUnits="userSpaceOnUse" x="0" y="0" width="162" height="177">
<path d="M161.505 0.0576782H0.555267V176.336H161.505V0.0576782Z" fill="white"/>
</mask>
<g mask="url(#mask0_17_290)">
<path d="M81.0305 7.65776C82.8723 7.65727 84.6825 8.13142 86.2773 9.03247L148.489 44.1694C150.085 45.0705 151.409 46.3665 152.33 47.9271C153.251 49.4878 153.736 51.2581 153.736 53.0602V123.334C153.736 125.136 153.251 126.906 152.33 128.467C151.409 130.027 150.085 131.323 148.489 132.224L86.2773 167.361C84.6817 168.262 82.8723 168.736 81.0301 168.736C79.1879 168.736 77.3782 168.262 75.7828 167.361L13.5712 132.224C11.9759 131.323 10.6512 130.027 9.73016 128.467C8.80916 126.906 8.32429 125.136 8.32433 123.334V53.0602C8.32431 51.2581 8.80916 49.4878 9.73016 47.9271C10.6512 46.3665 11.9759 45.0705 13.5712 44.1694L75.7828 9.03247C77.3783 8.1315 79.1882 7.65736 81.0305 7.65776ZM81.0305 0.0576782C77.8248 0.0589029 74.6758 0.884362 71.8991 2.45132L9.68667 37.5882C6.91382 39.1601 4.61114 41.4162 3.00875 44.1312C1.40636 46.8463 0.560359 49.9252 0.555267 53.0602V123.334C0.560523 126.469 1.4067 129.548 3.00922 132.263C4.61175 134.978 6.91453 137.234 9.68748 138.806L71.8991 173.943C74.6755 175.511 77.8248 176.336 81.0305 176.336C84.2363 176.336 87.3854 175.511 90.1619 173.943L152.373 138.806C155.147 137.235 157.45 134.978 159.053 132.264C160.656 129.548 161.502 126.469 161.508 123.334V53.0602C161.503 49.9252 160.657 46.8463 159.055 44.1313C157.452 41.4163 155.149 39.1601 152.377 37.5882L90.1651 2.45132C87.3886 0.884465 84.2395 0.0590143 81.0337 0.0576782H81.0305Z" fill="#C09CF9"/>
</g>
<g clip-path="url(#clip1_17_290)">
<path d="M85.573 32.1556C84.9503 32.1556 84.4454 31.6507 84.4454 31.028C84.4454 30.0655 81.7296 27.3497 80.7669 27.3497C80.1442 27.3497 79.6393 26.8448 79.6393 26.2221C79.6393 25.5994 80.1442 25.0945 80.7669 25.0945C81.7294 25.0945 84.4454 22.3785 84.4454 21.416C84.4454 20.7933 84.9503 20.2883 85.573 20.2883C86.1957 20.2883 86.7006 20.7933 86.7006 21.416C86.7006 22.3785 89.4166 25.0945 90.3792 25.0945C91.0018 25.0945 91.5068 25.5994 91.5068 26.2221C91.5068 26.8448 91.0018 27.3497 90.3792 27.3497C89.4166 27.3497 86.7006 30.0655 86.7006 31.028C86.7006 31.6509 86.1957 32.1556 85.573 32.1556ZM83.4037 26.2221C84.2054 26.8177 84.9776 27.5897 85.5732 28.3916C86.1689 27.5899 86.9408 26.8177 87.7428 26.2221C86.941 25.6265 86.1689 24.8543 85.5732 24.0526C84.9776 24.8545 84.2054 25.6265 83.4037 26.2221Z" fill="#3AA697" stroke="#3AA697" stroke-width="0.8"/>
<path d="M46.2188 59.5453C45.5962 59.5453 45.0912 59.0404 45.0912 58.4177C45.0912 56.7854 41.0893 52.7837 39.4572 52.7837C38.8345 52.7837 38.3296 52.2787 38.3296 51.656C38.3296 51.0334 38.8345 50.5284 39.4572 50.5284C41.0895 50.5284 45.0912 46.5265 45.0912 44.8944C45.0912 44.2717 45.5962 43.7668 46.2188 43.7668C46.8415 43.7668 47.3465 44.2717 47.3465 44.8944C47.3465 46.5267 51.3482 50.5284 52.9805 50.5284C53.6032 50.5284 54.1081 51.0334 54.1081 51.656C54.1081 52.2787 53.6032 52.7837 52.9805 52.7837C51.3482 52.7837 47.3465 56.7854 47.3465 58.4177C47.3465 59.0404 46.8415 59.5453 46.2188 59.5453ZM42.38 51.656C43.8186 52.6129 45.2619 54.0563 46.2188 55.4947C47.1757 54.0563 48.6191 52.6127 50.0575 51.656C48.6191 50.6991 47.1755 49.2558 46.2188 47.8172C45.2619 49.2558 43.8186 50.6991 42.38 51.656Z" fill="#3AA697" stroke="#3AA697" stroke-width="0.8"/>
<path d="M120.597 67.9249C119.975 67.9249 119.47 67.4199 119.47 66.7973C119.47 66.4274 118.94 65.3776 117.764 64.2006C116.587 63.0238 115.537 62.4945 115.167 62.4945C114.544 62.4945 114.04 61.9895 114.04 61.3669C114.04 60.7442 114.544 60.2392 115.167 60.2392C115.537 60.2392 116.587 59.7099 117.764 58.5334C118.941 57.3566 119.47 56.3066 119.47 55.9369C119.47 55.3142 119.975 54.8093 120.598 54.8093C121.22 54.8093 121.725 55.3142 121.725 55.9369C121.725 56.3068 122.254 57.3566 123.431 58.5334C124.608 59.7102 125.658 60.2392 126.028 60.2392C126.65 60.2392 127.155 60.7442 127.155 61.3669C127.155 61.9895 126.65 62.4945 126.028 62.4945C125.658 62.4945 124.608 63.0238 123.431 64.2006C122.254 65.3774 121.725 66.4274 121.725 66.7973C121.725 67.4199 121.22 67.9249 120.597 67.9249ZM117.918 61.3669C118.916 62.0779 119.886 63.0481 120.597 64.0461C121.308 63.0481 122.279 62.0777 123.277 61.3669C122.279 60.656 121.308 59.6856 120.597 58.6876C119.886 59.6858 118.916 60.656 117.918 61.3669Z" fill="#3AA697" stroke="#3AA697" stroke-width="0.8"/>
<path d="M99.4495 44.4659C98.8269 44.4659 98.3219 43.9609 98.3219 43.3383C98.3219 41.2776 93.4928 36.4483 91.4324 36.4483C90.8097 36.4483 90.3047 35.9433 90.3047 35.3206C90.3047 34.698 90.8097 34.193 91.4324 34.193C93.4928 34.193 98.3219 29.3636 98.3219 27.303C98.3219 26.6804 98.8269 26.1754 99.4495 26.1754C100.072 26.1754 100.577 26.6804 100.577 27.303C100.577 29.3636 105.407 34.193 107.468 34.193C108.09 34.193 108.595 34.698 108.595 35.3206C108.595 35.9433 108.09 36.4483 107.468 36.4483C105.407 36.4483 100.577 41.2776 100.577 43.3383C100.577 43.9609 100.072 44.4659 99.4495 44.4659ZM94.5428 35.3206C96.3932 36.4816 98.2888 38.3772 99.4498 40.2278C100.611 38.3772 102.507 36.4816 104.357 35.3206C102.507 34.1596 100.611 32.2641 99.4498 30.4135C98.2888 32.2641 96.3932 34.1596 94.5428 35.3206Z" fill="#3AA697" stroke="#3AA697" stroke-width="0.8"/>
<path d="M105.593 111.19H104.955L101.769 100.377C109.279 94.4948 114.114 85.3464 114.114 75.0896C114.114 57.3857 99.7111 42.9826 82.007 42.9826C64.3032 42.9826 49.8998 57.3857 49.8998 75.0896C49.8998 85.3464 54.7346 94.4948 62.2446 100.377L59.0595 111.19H58.4215C56.4757 111.19 54.8927 112.773 54.8927 114.719V115.384C54.8927 117.33 56.4759 118.913 58.4215 118.913H105.592C107.538 118.913 109.121 117.33 109.121 115.384V114.719C109.122 112.773 107.539 111.19 105.593 111.19ZM52.1555 75.0896C52.1555 58.6292 65.5469 45.2378 82.0075 45.2378C98.468 45.2378 111.859 58.6292 111.859 75.0896C111.859 91.5499 98.468 104.942 82.0075 104.942C65.5469 104.942 52.1555 91.5499 52.1555 75.0896ZM64.1825 101.781C69.2854 105.2 75.4172 107.197 82.0075 107.197C88.5977 107.197 94.7295 105.2 99.8325 101.781L102.604 111.19H61.411L64.1825 101.781ZM106.867 115.384C106.867 116.086 106.295 116.657 105.593 116.657H58.4219C57.7197 116.657 57.1484 116.086 57.1484 115.384V114.719C57.1484 114.017 57.7197 113.445 58.4219 113.445H105.593C106.295 113.445 106.866 114.017 106.866 114.719V115.384H106.867Z" fill="#554488" stroke="#554488" stroke-width="0.8"/>
<path fill-rule="evenodd" clip-rule="evenodd" d="M81.8911 100.981C68.043 100.981 56.7977 89.7148 56.7977 75.8871C56.7977 62.0558 68.0634 50.7936 81.8911 50.7936C95.7224 50.7936 106.985 62.0594 106.985 75.8871C106.985 89.7184 95.7189 100.981 81.8911 100.981ZM81.8911 52.4877C68.9996 52.4877 58.5095 62.977 58.5095 75.8693C58.5095 88.7608 68.9988 99.251 81.8911 99.251C94.7826 99.251 105.273 88.7617 105.273 75.8693C105.273 62.9778 94.7835 52.4877 81.8911 52.4877Z" fill="#554488" stroke="#554488" stroke-width="0.8"/>
<path fill-rule="evenodd" clip-rule="evenodd" d="M81.8911 67.7442C74.9755 67.6367 68.1504 64.6937 63.6023 59.8718C63.2765 59.5286 63.2973 58.9879 63.637 58.662C63.9802 58.3362 64.521 58.357 64.8468 58.6967C69.0897 63.1927 75.4612 65.9346 81.9092 66.0248C88.589 66.0248 94.1662 63.6226 98.9334 58.6585C99.2592 58.3153 99.8 58.3153 100.143 58.6412C100.486 58.967 100.486 59.5078 100.161 59.851C95.051 65.1582 89.0749 67.7407 81.8886 67.7407L81.8911 67.7442Z" fill="#554488" stroke="#554488" stroke-width="0.8"/>
<path fill-rule="evenodd" clip-rule="evenodd" d="M99.4203 93.4721C99.1846 93.4721 98.9697 93.382 98.7894 93.2017C96.8759 91.1808 94.6539 89.4995 92.1823 88.2551C88.806 86.5392 85.5198 85.7454 81.8732 85.7454C78.8574 85.7454 74.1291 86.5947 71.7442 87.9466C71.7269 87.964 71.7096 87.964 71.6714 87.9813C69.1443 89.1357 66.7421 90.8689 64.7212 92.9834C64.3953 93.3266 63.8546 93.3439 63.5114 93.0007C63.1682 92.6749 63.1509 92.1341 63.494 91.7909C65.6606 89.5342 68.2257 87.6935 70.9331 86.4457C73.6057 84.9274 78.587 84.026 81.8731 84.026C85.8076 84.026 89.3295 84.8926 92.9587 86.7334C95.6141 88.0887 97.9955 89.874 100.037 92.0406C100.363 92.3837 100.342 92.9245 100.003 93.2504C99.8571 93.396 99.6421 93.4653 99.4237 93.4653L99.4203 93.4721Z" fill="#554488" stroke="#554488" stroke-width="0.8"/>
<path fill-rule="evenodd" clip-rule="evenodd" d="M81.8911 100.981C75.2459 100.981 70.0291 89.95 70.0291 75.8871C70.0291 61.8242 75.2461 50.7936 81.8911 50.7936C88.5362 50.7936 93.7532 61.8242 93.7532 75.8871C93.7532 89.95 88.5362 100.981 81.8911 100.981ZM81.8911 52.4877C76.3864 52.4877 71.7444 63.1917 71.7444 75.8693C71.7444 88.5425 76.3861 99.251 81.8911 99.251C87.3962 99.251 92.0379 88.547 92.0379 75.8693C92.0379 63.1961 87.3789 52.4877 81.8911 52.4877Z" fill="#554488" stroke="#554488" stroke-width="0.8"/>
<path fill-rule="evenodd" clip-rule="evenodd" d="M81.8912 100.981C81.4232 100.981 81.0245 100.603 81.0245 100.114V51.6389C81.0245 51.1709 81.4024 50.7722 81.8912 50.7722C82.3799 50.7722 82.7578 51.1501 82.7578 51.6389V100.132C82.7404 100.6 82.3626 100.981 81.8912 100.981Z" fill="#554488" stroke="#554488" stroke-width="0.8"/>
<path fill-rule="evenodd" clip-rule="evenodd" d="M106.139 76.7363H57.6079C57.1399 76.7363 56.7413 76.3585 56.7413 75.8697C56.7413 75.381 57.1191 75.0031 57.6079 75.0031H106.121C106.589 75.0031 106.988 75.381 106.988 75.8697C106.988 76.3585 106.61 76.7363 106.139 76.7363Z" fill="#554488" stroke="#554488" stroke-width="0.8"/>
</g>
<path d="M128.808 139.143C128.242 139.255 127.681 139.3 127.126 139.276C126.578 139.258 126.088 139.149 125.657 138.949C125.226 138.742 124.899 138.423 124.675 137.993C124.486 137.615 124.383 137.235 124.365 136.851C124.353 136.462 124.347 136.022 124.347 135.532V126.929H125.923V135.461C125.923 135.851 125.926 136.184 125.931 136.462C125.943 136.739 126.005 136.978 126.117 137.178C126.33 137.556 126.666 137.777 127.126 137.842C127.592 137.907 128.153 137.889 128.808 137.789V139.143ZM122.409 130.885V129.584H128.808V130.885H122.409Z" fill="#554488"/>
<path d="M117.575 139.409C116.608 139.409 115.785 139.194 115.106 138.763C114.433 138.326 113.92 137.727 113.566 136.966C113.212 136.205 113.029 135.337 113.017 134.364C113.029 133.367 113.215 132.49 113.575 131.735C113.941 130.974 114.463 130.381 115.141 129.956C115.82 129.531 116.637 129.319 117.593 129.319C118.602 129.319 119.469 129.567 120.195 130.062C120.927 130.558 121.417 131.237 121.664 132.098L120.107 132.567C119.906 132.012 119.579 131.582 119.124 131.275C118.676 130.968 118.16 130.815 117.575 130.815C116.92 130.815 116.38 130.968 115.956 131.275C115.531 131.576 115.215 131.995 115.009 132.532C114.802 133.063 114.696 133.673 114.69 134.364C114.702 135.426 114.947 136.285 115.425 136.939C115.908 137.589 116.625 137.913 117.575 137.913C118.201 137.913 118.72 137.771 119.133 137.488C119.546 137.199 119.859 136.783 120.071 136.24L121.664 136.656C121.334 137.547 120.818 138.229 120.116 138.701C119.413 139.173 118.567 139.409 117.575 139.409Z" fill="#554488"/>
<path d="M109.317 127.894V126.265H110.893V127.894H109.317ZM109.317 139.143V129.584H110.893V139.143H109.317Z" fill="#554488"/>
<path d="M102.261 139.409C101.37 139.409 100.606 139.188 99.969 138.745C99.3317 138.297 98.839 137.692 98.4909 136.931C98.1487 136.169 97.9775 135.311 97.9775 134.355C97.9775 133.399 98.1487 132.541 98.4909 131.779C98.839 131.018 99.3317 130.419 99.969 129.983C100.606 129.54 101.367 129.319 102.253 129.319C103.155 129.319 103.914 129.537 104.527 129.974C105.141 130.41 105.604 131.009 105.917 131.771C106.235 132.532 106.395 133.393 106.395 134.355C106.395 135.305 106.235 136.164 105.917 136.931C105.604 137.692 105.141 138.297 104.527 138.745C103.914 139.188 103.158 139.409 102.261 139.409ZM102.456 137.966C103.099 137.966 103.627 137.813 104.04 137.506C104.453 137.193 104.757 136.765 104.952 136.223C105.153 135.674 105.253 135.051 105.253 134.355C105.253 133.647 105.153 133.024 104.952 132.487C104.757 131.945 104.456 131.523 104.049 131.222C103.642 130.915 103.126 130.762 102.5 130.762C101.851 130.762 101.314 130.921 100.889 131.24C100.471 131.558 100.158 131.989 99.9513 132.532C99.7507 133.075 99.6504 133.682 99.6504 134.355C99.6504 135.034 99.7536 135.647 99.9601 136.196C100.167 136.739 100.476 137.17 100.889 137.488C101.308 137.807 101.831 137.966 102.456 137.966ZM105.253 139.143V132.107H105.076V126.398H106.66V139.143H105.253Z" fill="#554488"/>
<path d="M92.1922 139.409C91.254 139.409 90.4338 139.202 89.7316 138.789C89.0354 138.37 88.4925 137.789 88.1031 137.046C87.7136 136.296 87.5189 135.423 87.5189 134.426C87.5189 133.381 87.7107 132.479 88.0942 131.717C88.4778 130.95 89.0118 130.36 89.6962 129.947C90.3866 129.528 91.195 129.319 92.1214 129.319C93.0832 129.319 93.9004 129.54 94.5731 129.983C95.2517 130.425 95.7591 131.057 96.0954 131.877C96.4377 132.697 96.5852 133.673 96.538 134.806H94.9448V134.24C94.9271 133.066 94.6882 132.189 94.2279 131.611C93.7677 131.027 93.0832 130.735 92.1745 130.735C91.2009 130.735 90.4604 131.048 89.9529 131.673C89.4455 132.299 89.1917 133.196 89.1917 134.364C89.1917 135.491 89.4455 136.364 89.9529 136.984C90.4604 137.603 91.1832 137.913 92.1214 137.913C92.7528 137.913 93.3015 137.769 93.7677 137.479C94.2338 137.19 94.5996 136.774 94.8652 136.231L96.3787 136.754C96.0069 137.597 95.4464 138.252 94.697 138.719C93.9535 139.179 93.1186 139.409 92.1922 139.409ZM88.6607 134.806V133.541H95.7237V134.806H88.6607Z" fill="#554488"/>
<path d="M81.6192 139.143V129.584H83.0265V131.894L82.7964 131.594C82.9085 131.299 83.0531 131.027 83.2301 130.779C83.413 130.531 83.6166 130.328 83.8408 130.169C84.0886 129.968 84.3689 129.815 84.6816 129.708C84.9944 129.602 85.313 129.54 85.6375 129.522C85.9621 129.499 86.266 129.519 86.5492 129.584V131.062C86.2188 130.974 85.8559 130.95 85.4605 130.992C85.0652 131.033 84.6994 131.178 84.363 131.425C84.0562 131.644 83.8172 131.909 83.6461 132.222C83.4809 132.535 83.3658 132.874 83.3009 133.24C83.236 133.6 83.2035 133.969 83.2035 134.346V139.143H81.6192Z" fill="#554488"/>
<path d="M75.3951 139.409C74.4982 139.409 73.7429 139.188 73.1293 138.745C72.5156 138.297 72.0495 137.692 71.7308 136.931C71.4181 136.164 71.2617 135.305 71.2617 134.355C71.2617 133.393 71.4181 132.532 71.7308 131.771C72.0495 131.009 72.5156 130.41 73.1293 129.974C73.7488 129.537 74.5071 129.319 75.404 129.319C76.2891 129.319 77.0502 129.54 77.6875 129.983C78.3307 130.419 78.8234 131.018 79.1656 131.779C79.5078 132.541 79.679 133.399 79.679 134.355C79.679 135.311 79.5078 136.169 79.1656 136.931C78.8234 137.692 78.3307 138.297 77.6875 138.745C77.0502 139.188 76.2861 139.409 75.3951 139.409ZM70.9962 143.392V129.584H72.4035V136.621H72.5805V143.392H70.9962ZM75.2004 137.966C75.8318 137.966 76.354 137.807 76.767 137.488C77.18 137.17 77.4898 136.739 77.6964 136.196C77.9029 135.647 78.0061 135.034 78.0061 134.355C78.0061 133.682 77.9029 133.075 77.6964 132.532C77.4957 131.989 77.183 131.558 76.7582 131.239C76.3392 130.921 75.8052 130.762 75.1561 130.762C74.5366 130.762 74.0232 130.915 73.6161 131.222C73.2089 131.523 72.9051 131.945 72.7044 132.487C72.5038 133.024 72.4035 133.647 72.4035 134.355C72.4035 135.051 72.5009 135.674 72.6956 136.223C72.8962 136.765 73.203 137.193 73.6161 137.506C74.0291 137.813 74.5572 137.966 75.2004 137.966Z" fill="#554488"/>
<path d="M59.6649 139.143V126.398H64.701C64.8249 126.398 64.9725 126.404 65.1436 126.416C65.3147 126.422 65.4799 126.439 65.6392 126.469C66.3296 126.575 66.9078 126.811 67.374 127.177C67.846 127.543 68.2001 128.006 68.4361 128.567C68.6721 129.121 68.7901 129.738 68.7901 130.416C68.7901 131.402 68.5335 132.257 68.0201 132.983C67.5068 133.703 66.7544 134.154 65.7631 134.337L65.1613 134.435H61.2403V139.143H59.6649ZM67.2501 139.143L64.7364 133.957L66.2942 133.479L69.0557 139.143H67.2501ZM61.2403 132.939H64.6479C64.76 132.939 64.8869 132.933 65.0285 132.921C65.176 132.909 65.3147 132.889 65.4445 132.859C65.8516 132.765 66.1821 132.594 66.4358 132.346C66.6954 132.092 66.8842 131.797 67.0023 131.461C67.1203 131.119 67.1793 130.77 67.1793 130.416C67.1793 130.062 67.1203 129.717 67.0023 129.381C66.8842 129.039 66.6954 128.741 66.4358 128.487C66.1821 128.233 65.8516 128.062 65.4445 127.974C65.3147 127.938 65.176 127.917 65.0285 127.912C64.8869 127.9 64.76 127.894 64.6479 127.894H61.2403V132.939Z" fill="#554488"/>
<path d="M47.322 139.143V126.398H48.8975V132.018H55.6064V126.398H57.1819V139.143H55.6064V133.514H48.8975V139.143H47.322Z" fill="#554488"/>
<path d="M39.8453 139.409C38.972 139.409 38.1755 139.255 37.4556 138.949C36.7357 138.642 36.1161 138.202 35.5969 137.63C35.0776 137.052 34.6764 136.355 34.3932 135.541C34.1158 134.721 33.9772 133.797 33.9772 132.771C33.9772 131.414 34.2191 130.239 34.7029 129.248C35.1868 128.257 35.8683 127.493 36.7475 126.956C37.6267 126.413 38.6593 126.141 39.8453 126.141C41.2733 126.141 42.4239 126.475 43.2972 127.142C44.1705 127.802 44.7723 128.708 45.1028 129.859L43.5096 130.186C43.2441 129.413 42.8074 128.797 42.1997 128.336C41.5919 127.876 40.8337 127.646 39.925 127.646C38.975 127.64 38.1843 127.853 37.5529 128.283C36.9275 128.708 36.4554 129.307 36.1368 130.08C35.8182 130.853 35.6559 131.75 35.65 132.771C35.6441 133.786 35.8005 134.677 36.1191 135.444C36.4377 136.211 36.9127 136.813 37.5441 137.249C38.1814 137.68 38.975 137.898 39.925 137.904C40.7452 137.91 41.4355 137.754 41.9961 137.435C42.5567 137.117 42.9903 136.656 43.2972 136.054C43.604 135.453 43.7899 134.73 43.8548 133.886H41.1464V132.585H45.5188C45.5365 132.703 45.5453 132.844 45.5453 133.01C45.5512 133.169 45.5542 133.278 45.5542 133.337C45.5542 134.5 45.3358 135.541 44.8992 136.462C44.4685 137.376 43.8282 138.096 42.9785 138.621C42.1348 139.146 41.0904 139.409 39.8453 139.409Z" fill="#554488"/>
</g>
<defs>
<clipPath id="clip0_17_290">
<rect width="164.374" height="183.942" fill="white" transform="translate(0.555267 0.0576782)"/>
</clipPath>
<clipPath id="clip1_17_290">
<rect width="98.6244" height="98.6244" fill="white" transform="translate(33.4301 20.2883)"/>
</clipPath>
</defs>
</svg>
