<svg width="163" height="178" viewBox="0 0 163 178" fill="none" xmlns="http://www.w3.org/2000/svg">
<path d="M81.6865 7.68967C83.536 7.68918 85.3538 8.16532 86.9553 9.07014L149.427 44.3546C151.029 45.2595 152.359 46.5609 153.284 48.1281C154.208 49.6953 154.696 51.4731 154.696 53.2827V123.852C154.696 125.661 154.208 127.438 153.284 129.006C152.359 130.573 151.029 131.874 149.427 132.779L86.9553 168.063C85.353 168.968 83.536 169.445 81.6861 169.445C79.8362 169.445 78.0189 168.968 76.4169 168.063L13.9454 132.779C12.3434 131.874 11.0131 130.573 10.0883 129.006C9.16344 127.438 8.67654 125.661 8.67658 123.852V53.2827C8.67656 51.4731 9.16344 49.6953 10.0883 48.1281C11.0132 46.5609 12.3434 45.2595 13.9454 44.3546L76.4169 9.07014C78.0191 8.1654 79.8365 7.68926 81.6865 7.68967ZM81.6865 0.0576782C78.4675 0.058908 75.3053 0.887832 72.5169 2.46137L10.0446 37.7458C7.26018 39.3242 4.94788 41.5898 3.33879 44.3162C1.72971 47.0427 0.880174 50.1345 0.875061 53.2827V123.852C0.880338 127 1.73005 130.092 3.33927 132.818C4.94849 135.545 7.26089 137.81 10.0454 139.388L72.5169 174.673C75.305 176.248 78.4674 177.076 81.6865 177.076C84.9057 177.076 88.0679 176.248 90.856 174.673L153.328 139.388C156.112 137.811 158.426 135.545 160.035 132.819C161.645 130.092 162.495 127 162.5 123.852V53.2827C162.495 50.1345 161.646 47.0427 160.037 44.3163C158.427 41.5899 156.115 39.3242 153.331 37.7458L90.8593 2.46137C88.0712 0.887936 84.9089 0.05902 81.6897 0.0576782H81.6865Z" fill="#E296B5"/>
<path d="M99.2765 39.6324C105.163 39.8994 110.71 42.5864 114.704 47.106C118.698 51.6256 120.816 57.6106 120.594 63.7535V62.5513H114.055C113.983 58.6454 112.576 54.8783 110.068 51.942C107.304 48.7052 103.424 46.7399 99.2765 46.4752C95.1287 46.7398 91.2492 48.7053 88.4845 51.942C85.7199 55.1787 84.2946 59.4245 84.5187 63.7535C84.5187 64.6608 84.1726 65.5318 83.5577 66.1734C82.9428 66.8149 82.108 67.1752 81.2384 67.1754C80.3689 67.1753 79.535 66.8147 78.92 66.1734C78.305 65.5317 77.9591 64.6609 77.9591 63.7535C78.1831 59.4247 76.7576 55.1786 73.9933 51.942C71.2288 48.7053 67.3489 46.74 63.2013 46.4752C59.0535 46.7398 55.174 48.7053 52.4093 51.942C49.6447 55.1787 48.2184 59.4245 48.4425 63.7535C48.4425 73.686 58.1078 87.8375 74.9581 102.587C76.7159 104.132 78.9405 104.979 81.2384 104.979C83.5364 104.979 85.7609 104.132 87.5187 102.587V102.574C89.9502 100.447 92.2307 98.331 94.3556 96.2398H103.698C99.8064 100.464 95.6585 104.388 91.7335 107.823C88.7944 110.4 85.0775 111.812 81.2384 111.812C77.3994 111.812 73.6833 110.399 70.7443 107.823C57.58 96.3026 41.8839 79.311 41.8839 63.7535C41.6618 57.6104 43.7794 51.6256 47.7735 47.106C51.7678 42.5865 57.3144 39.8992 63.2013 39.6324C66.894 39.6924 70.5071 40.7682 73.6739 42.7505C76.8406 44.733 79.45 47.5524 81.2384 50.9234C83.0269 47.5523 85.6369 44.733 88.8038 42.7505C91.9708 40.7682 95.5836 39.6923 99.2765 39.6324ZM99.4005 56.2369C100.492 56.2602 101.424 57.1165 101.723 58.3668L107.478 86.0855L109.353 77.7564C109.973 75.0028 112.076 73.0787 114.469 73.0787H118.823C119.8 73.0787 120.59 74.022 120.59 75.1841L120.593 75.1861C120.593 76.3482 119.804 77.2916 118.827 77.2916H114.473C113.675 77.2916 112.973 77.9335 112.767 78.8492L109.805 91.9908C109.467 93.3063 108.524 94.1334 107.437 94.1334H107.407C106.307 94.1186 105.367 93.2597 105.068 91.9986L99.2872 64.1548L93.6749 87.816C93.3376 89.0724 92.4568 89.8699 91.4152 89.9185C90.3344 89.988 89.4383 89.2556 89.0392 88.1041L86.214 78.6851C85.9615 77.8516 85.2942 77.2898 84.5509 77.2896H79.9767C79.0002 77.2895 78.2111 76.3462 78.211 75.1841C78.211 74.0221 79.0002 73.0787 79.9767 73.0787H84.5519C86.784 73.0787 88.7871 74.7609 89.5411 77.2662L91.1974 82.7945L96.9972 58.3423C97.3521 57.0266 98.2809 56.18 99.4005 56.2369Z" fill="#E296B5"/>
<path d="M132.136 136.615V131.826C132.136 131.372 132.095 130.935 132.012 130.516C131.935 130.097 131.797 129.723 131.596 129.392C131.401 129.056 131.136 128.79 130.8 128.596C130.469 128.401 130.05 128.304 129.543 128.304C129.147 128.304 128.787 128.371 128.463 128.507C128.144 128.637 127.87 128.838 127.64 129.109C127.41 129.38 127.23 129.723 127.1 130.136C126.976 130.543 126.914 131.024 126.914 131.578L125.878 131.26C125.878 130.333 126.044 129.54 126.374 128.879C126.71 128.212 127.18 127.702 127.781 127.348C128.389 126.988 129.103 126.808 129.923 126.808C130.543 126.808 131.071 126.905 131.508 127.1C131.944 127.295 132.307 127.554 132.596 127.879C132.885 128.197 133.113 128.557 133.278 128.958C133.443 129.354 133.558 129.758 133.623 130.171C133.694 130.578 133.729 130.965 133.729 131.331V136.615H132.136ZM125.321 136.615V123.869H126.737V130.906H126.914V136.615H125.321Z" fill="#2F45CF"/>
<path d="M123.389 136.614C122.823 136.727 122.262 136.771 121.707 136.747C121.159 136.73 120.669 136.62 120.238 136.42C119.807 136.213 119.48 135.895 119.256 135.464C119.067 135.086 118.964 134.706 118.946 134.322C118.934 133.933 118.928 133.493 118.928 133.003V124.4H120.504V132.933C120.504 133.322 120.507 133.655 120.512 133.933C120.524 134.21 120.586 134.449 120.698 134.65C120.911 135.027 121.247 135.249 121.707 135.313C122.173 135.378 122.734 135.361 123.389 135.26V136.614ZM116.99 128.357V127.056H123.389V128.357H116.99Z" fill="#2F45CF"/>
<path d="M113.821 136.615V123.604H115.396V136.615H113.821Z" fill="#2F45CF"/>
<path d="M106.404 136.88C105.69 136.88 105.091 136.75 104.607 136.491C104.129 136.225 103.766 135.877 103.518 135.446C103.276 135.015 103.155 134.543 103.155 134.03C103.155 133.528 103.25 133.095 103.439 132.729C103.633 132.357 103.905 132.05 104.253 131.808C104.601 131.561 105.017 131.366 105.501 131.224C105.955 131.1 106.463 130.994 107.023 130.906C107.59 130.811 108.162 130.726 108.74 130.649C109.319 130.572 109.858 130.499 110.36 130.428L109.794 130.755C109.811 129.905 109.64 129.277 109.28 128.87C108.926 128.463 108.313 128.259 107.439 128.259C106.861 128.259 106.354 128.392 105.917 128.658C105.486 128.917 105.182 129.342 105.005 129.932L103.509 129.481C103.74 128.643 104.185 127.985 104.846 127.507C105.507 127.029 106.377 126.79 107.457 126.79C108.324 126.79 109.068 126.946 109.687 127.259C110.313 127.566 110.761 128.032 111.033 128.658C111.168 128.953 111.254 129.274 111.289 129.622C111.325 129.965 111.342 130.324 111.342 130.702V136.614H109.944V134.322L110.272 134.535C109.912 135.308 109.407 135.892 108.758 136.287C108.115 136.682 107.33 136.88 106.404 136.88ZM106.643 135.561C107.209 135.561 107.699 135.461 108.112 135.26C108.531 135.054 108.867 134.785 109.121 134.455C109.375 134.119 109.54 133.753 109.617 133.357C109.705 133.062 109.752 132.735 109.758 132.375C109.77 132.009 109.776 131.729 109.776 131.534L110.325 131.773C109.811 131.844 109.307 131.912 108.811 131.977C108.315 132.042 107.846 132.112 107.404 132.189C106.961 132.26 106.563 132.345 106.209 132.446C105.949 132.528 105.704 132.635 105.474 132.764C105.25 132.894 105.067 133.062 104.926 133.269C104.79 133.469 104.722 133.72 104.722 134.021C104.722 134.281 104.787 134.529 104.917 134.765C105.052 135.001 105.259 135.192 105.536 135.34C105.82 135.487 106.188 135.561 106.643 135.561Z" fill="#2F45CF"/>
<path d="M97.543 136.88C96.6048 136.88 95.7846 136.673 95.0824 136.26C94.3861 135.842 93.8433 135.26 93.4538 134.517C93.0644 133.767 92.8697 132.894 92.8697 131.897C92.8697 130.853 93.0615 129.95 93.445 129.189C93.8285 128.421 94.3625 127.831 95.047 127.418C95.7374 126.999 96.5458 126.79 97.4722 126.79C98.434 126.79 99.2512 127.011 99.9239 127.454C100.602 127.896 101.11 128.528 101.446 129.348C101.788 130.168 101.936 131.145 101.889 132.278H100.296V131.711C100.278 130.537 100.039 129.661 99.5787 129.082C99.1184 128.498 98.434 128.206 97.5253 128.206C96.5517 128.206 95.8111 128.519 95.3037 129.144C94.7962 129.77 94.5425 130.667 94.5425 131.835C94.5425 132.962 94.7962 133.835 95.3037 134.455C95.8111 135.074 96.534 135.384 97.4722 135.384C98.1035 135.384 98.6523 135.24 99.1184 134.951C99.5846 134.661 99.9504 134.245 100.216 133.703L101.729 134.225C101.358 135.069 100.797 135.723 100.048 136.19C99.3043 136.65 98.4694 136.88 97.543 136.88ZM94.0115 132.278V131.012H101.074V132.278H94.0115Z" fill="#2F45CF"/>
<path d="M89.5065 136.615V131.826C89.5065 131.372 89.4652 130.935 89.3826 130.516C89.3059 130.097 89.1672 129.723 88.9666 129.392C88.7719 129.056 88.5063 128.79 88.17 128.596C87.8396 128.401 87.4206 128.304 86.9132 128.304C86.5178 128.304 86.1579 128.371 85.8334 128.507C85.5147 128.637 85.2403 128.838 85.0102 129.109C84.7801 129.38 84.6001 129.723 84.4703 130.136C84.3464 130.543 84.2845 131.024 84.2845 131.578L83.2489 131.26C83.2489 130.333 83.4141 129.54 83.7445 128.879C84.0809 128.212 84.55 127.702 85.1518 127.348C85.7596 126.988 86.4736 126.808 87.2938 126.808C87.9133 126.808 88.4414 126.905 88.8781 127.1C89.3147 127.295 89.6776 127.554 89.9667 127.879C90.2559 128.197 90.483 128.557 90.6482 128.958C90.8135 129.354 90.9285 129.758 90.9934 130.171C91.0642 130.578 91.0996 130.965 91.0996 131.331V136.615H89.5065ZM82.6913 136.615V123.869H84.1074V130.906H84.2845V136.615H82.6913Z" fill="#2F45CF"/>
<path d="M77.6604 136.615V134.269H71.8011V132.773L76.0053 123.869H77.7931L73.589 132.773H77.6604V129.189H79.2536V132.773H80.5812V134.269H79.2536V136.615H77.6604Z" fill="#2F45CF"/>
<path d="M64.915 136.88C64.2011 136.88 63.6021 136.75 63.1183 136.491C62.6403 136.225 62.2775 135.877 62.0296 135.446C61.7877 135.015 61.6667 134.543 61.6667 134.03C61.6667 133.528 61.7612 133.095 61.95 132.729C62.1447 132.357 62.4161 132.05 62.7643 131.808C63.1124 131.561 63.5284 131.366 64.0122 131.224C64.4666 131.1 64.974 130.994 65.5346 130.906C66.1011 130.811 66.6734 130.726 67.2517 130.649C67.8299 130.572 68.3698 130.499 68.8714 130.428L68.3049 130.755C68.3226 129.905 68.1515 129.277 67.7916 128.87C67.4375 128.463 66.8239 128.259 65.9506 128.259C65.3723 128.259 64.8649 128.392 64.4282 128.658C63.9975 128.917 63.6936 129.342 63.5166 129.932L62.0208 129.481C62.2509 128.643 62.6964 127.985 63.3573 127.507C64.0181 127.029 64.8885 126.79 65.9683 126.79C66.8357 126.79 67.5792 126.946 68.1987 127.259C68.8242 127.566 69.2726 128.032 69.5441 128.658C69.6798 128.953 69.7653 129.274 69.8007 129.622C69.8361 129.965 69.8538 130.324 69.8538 130.702V136.614H68.4554V134.322L68.7829 134.535C68.4229 135.308 67.9184 135.892 67.2694 136.287C66.6262 136.682 65.8414 136.88 64.915 136.88ZM65.154 135.561C65.7205 135.561 66.2102 135.461 66.6233 135.26C67.0422 135.054 67.3785 134.785 67.6323 134.455C67.886 134.119 68.0512 133.753 68.1279 133.357C68.2164 133.062 68.2636 132.735 68.2695 132.375C68.2813 132.009 68.2872 131.729 68.2872 131.534L68.836 131.773C68.3226 131.844 67.8181 131.912 67.3225 131.977C66.8268 132.042 66.3577 132.112 65.9152 132.189C65.4726 132.26 65.0743 132.345 64.7203 132.446C64.4607 132.528 64.2158 132.635 63.9857 132.764C63.7615 132.894 63.5785 133.062 63.4369 133.269C63.3012 133.469 63.2334 133.72 63.2334 134.021C63.2334 134.281 63.2983 134.529 63.4281 134.765C63.5638 135.001 63.7703 135.192 64.0476 135.34C64.3309 135.487 64.6997 135.561 65.154 135.561Z" fill="#2F45CF"/>
<path d="M60.2571 136.614C59.6907 136.727 59.1301 136.771 58.5754 136.747C58.0267 136.73 57.5369 136.62 57.1062 136.42C56.6754 136.213 56.348 135.895 56.1237 135.464C55.9349 135.086 55.8317 134.706 55.814 134.322C55.8022 133.933 55.7963 133.493 55.7963 133.003V124.4H57.3717V132.933C57.3717 133.322 57.3747 133.655 57.3806 133.933C57.3924 134.21 57.4543 134.449 57.5664 134.65C57.7789 135.027 58.1152 135.249 58.5754 135.313C59.0416 135.378 59.6022 135.361 60.2571 135.26V136.614ZM53.8579 128.357V127.056H60.2571V128.357H53.8579Z" fill="#2F45CF"/>
<path d="M47.68 136.88C46.9661 136.88 46.3672 136.75 45.8833 136.491C45.4054 136.225 45.0425 135.877 44.7946 135.446C44.5527 135.015 44.4318 134.543 44.4318 134.03C44.4318 133.528 44.5262 133.095 44.715 132.729C44.9097 132.357 45.1811 132.05 45.5293 131.808C45.8774 131.561 46.2934 131.366 46.7773 131.224C47.2316 131.1 47.7391 130.994 48.2996 130.906C48.8661 130.811 49.4384 130.726 50.0167 130.649C50.5949 130.572 51.1348 130.499 51.6364 130.428L51.0699 130.755C51.0876 129.905 50.9165 129.277 50.5566 128.87C50.2026 128.463 49.5889 128.259 48.7156 128.259C48.1373 128.259 47.6299 128.392 47.1932 128.658C46.7625 128.917 46.4586 129.342 46.2816 129.932L44.7858 129.481C45.0159 128.643 45.4614 127.985 46.1223 127.507C46.7832 127.029 47.6535 126.79 48.7333 126.79C49.6007 126.79 50.3442 126.946 50.9637 127.259C51.5892 127.566 52.0376 128.032 52.3091 128.658C52.4448 128.953 52.5303 129.274 52.5657 129.622C52.6011 129.965 52.6189 130.324 52.6189 130.702V136.614H51.2204V134.322L51.5479 134.535C51.188 135.308 50.6835 135.892 50.0344 136.287C49.3912 136.682 48.6064 136.88 47.68 136.88ZM47.919 135.561C48.4855 135.561 48.9752 135.461 49.3883 135.26C49.8072 135.054 50.1435 134.785 50.3973 134.455C50.651 134.119 50.8162 133.753 50.8929 133.357C50.9814 133.062 51.0286 132.735 51.0345 132.375C51.0463 132.009 51.0522 131.729 51.0522 131.534L51.601 131.773C51.0876 131.844 50.5831 131.912 50.0875 131.977C49.5918 132.042 49.1227 132.112 48.6802 132.189C48.2377 132.26 47.8394 132.345 47.4853 132.446C47.2257 132.528 46.9808 132.635 46.7507 132.764C46.5265 132.894 46.3436 133.062 46.2019 133.269C46.0662 133.469 45.9984 133.72 45.9984 134.021C45.9984 134.281 46.0633 134.529 46.1931 134.765C46.3288 135.001 46.5353 135.192 46.8127 135.34C47.0959 135.487 47.4647 135.561 47.919 135.561Z" fill="#2F45CF"/>
<path d="M38.0841 136.88C37.1931 136.88 36.429 136.659 35.7917 136.216C35.1544 135.768 34.6617 135.163 34.3136 134.402C33.9713 133.641 33.8002 132.782 33.8002 131.826C33.8002 130.87 33.9713 130.012 34.3136 129.251C34.6617 128.489 35.1544 127.89 35.7917 127.454C36.429 127.011 37.1901 126.79 38.0752 126.79C38.978 126.79 39.7362 127.008 40.3499 127.445C40.9636 127.882 41.4268 128.481 41.7395 129.242C42.0581 130.003 42.2174 130.864 42.2174 131.826C42.2174 132.776 42.0581 133.635 41.7395 134.402C41.4268 135.163 40.9636 135.768 40.3499 136.216C39.7362 136.659 38.981 136.88 38.0841 136.88ZM38.2788 135.437C38.922 135.437 39.4501 135.284 39.8631 134.977C40.2761 134.664 40.58 134.237 40.7747 133.694C40.9754 133.145 41.0757 132.522 41.0757 131.826C41.0757 131.118 40.9754 130.496 40.7747 129.959C40.58 129.416 40.2791 128.994 39.872 128.693C39.4648 128.386 38.9485 128.233 38.323 128.233C37.674 128.233 37.137 128.392 36.7122 128.711C36.2932 129.029 35.9805 129.46 35.774 130.003C35.5734 130.546 35.4731 131.154 35.4731 131.826C35.4731 132.505 35.5763 133.118 35.7828 133.667C35.9894 134.21 36.2991 134.641 36.7122 134.959C37.1311 135.278 37.6533 135.437 38.2788 135.437ZM41.0757 136.615V129.578H40.8987V123.869H42.483V136.615H41.0757Z" fill="#2F45CF"/>
</svg>
