<svg width="165" height="184" viewBox="0 0 165 184" fill="none" xmlns="http://www.w3.org/2000/svg">
<mask id="mask0_17_288" style="mask-type:luminance" maskUnits="userSpaceOnUse" x="0" y="0" width="161" height="177">
<path d="M160.95 0H0V176.278H160.95V0Z" fill="white"/>
</mask>
<g mask="url(#mask0_17_288)">
<path d="M80.4752 7.60009C82.317 7.59959 84.1273 8.07374 85.7221 8.97479L147.934 44.1117C149.529 45.0128 150.854 46.3088 151.774 47.8694C152.695 49.4301 153.181 51.2004 153.181 53.0025V123.276C153.181 125.078 152.695 126.848 151.774 128.409C150.854 129.969 149.529 131.265 147.934 132.166L85.7221 167.303C84.1265 168.204 82.317 168.679 80.4748 168.679C78.6326 168.679 76.8229 168.204 75.2275 167.303L13.0159 132.166C11.4206 131.265 10.0959 129.969 9.17489 128.409C8.2539 126.848 7.76902 125.078 7.76907 123.276V53.0025C7.76904 51.2004 8.2539 49.4301 9.17489 47.8694C10.096 46.3088 11.4206 45.0128 13.0159 44.1117L75.2275 8.97479C76.8231 8.07382 78.633 7.59968 80.4752 7.60009ZM80.4752 0C77.2696 0.00122467 74.1206 0.826683 71.3438 2.39365L9.1314 37.5306C6.35855 39.1024 4.05587 41.3585 2.45348 44.0735C0.851098 46.7886 0.00509137 49.8675 0 53.0025V123.276C0.00525521 126.412 0.85143 129.491 2.45395 132.205C4.05648 134.921 6.35926 137.176 9.13221 138.748L71.3438 173.885C74.1202 175.453 77.2695 176.278 80.4752 176.278C83.681 176.278 86.8301 175.453 89.6066 173.885L151.818 138.748C154.591 137.177 156.895 134.921 158.498 132.206C160.101 129.491 160.947 126.412 160.953 123.276V53.0025C160.948 49.8675 160.102 46.7886 158.5 44.0736C156.897 41.3586 154.594 39.1024 151.821 37.5306L89.6098 2.39365C86.8333 0.826787 83.6842 0.00133612 80.4784 0H80.4752Z" fill="#554488"/>
</g>
<path d="M95.8318 106.652C93.4206 107.646 90.8846 108.426 88.2553 108.964C85.4796 109.532 82.6321 109.832 79.7493 109.832H79.7215H79.695L79.6673 109.831C68.0364 109.808 57.5038 105.08 49.8781 97.4496C42.2334 89.8004 37.5031 79.2313 37.5031 67.5595C37.5031 55.8876 42.2321 45.3198 49.8781 37.6706C57.5227 30.0201 68.0843 25.2883 79.7493 25.2883C91.4143 25.2883 101.977 30.0214 109.622 37.6706C117.266 45.3198 121.997 55.8888 121.997 67.5595C121.997 70.4112 121.702 73.2351 121.143 75.9948C120.613 78.6105 119.849 81.1279 118.874 83.5203L118.878 83.9619C118.878 88.9297 117.255 93.9013 114.01 98.0086L120.094 104.096C120.512 103.991 120.941 103.938 121.37 103.938C122.702 103.938 124.037 104.448 125.052 105.463L132.074 112.489C133.089 113.505 133.599 114.841 133.599 116.174C133.599 117.506 133.092 118.84 132.075 119.857C131.056 120.877 129.723 121.384 128.392 121.384C127.06 121.384 125.724 120.874 124.709 119.858L117.686 112.832L117.5 112.626C116.609 111.636 116.163 110.388 116.163 109.148C116.163 108.72 116.216 108.291 116.322 107.872L110.237 101.784C106.13 105.032 101.162 106.655 96.1975 106.655L95.8318 106.652ZM94.8936 75.1317C93.437 75.3436 92.0814 74.3355 91.8695 72.878C91.6577 71.4206 92.6653 70.0642 94.1218 69.8522C96.311 69.5304 98.5621 69.7197 100.679 70.4213C102.717 71.0963 104.64 72.2497 106.267 73.8762C107.309 74.9121 107.313 76.5992 106.277 77.6414C105.242 78.6837 103.556 78.6875 102.514 77.6515C101.499 76.637 100.294 75.9153 99.0123 75.4913C97.6806 75.0509 96.2656 74.9298 94.8936 75.1317ZM116.223 73.302C116.379 72.2976 116.493 71.273 116.565 70.2307H114.256C115.003 71.2112 115.659 72.2383 116.223 73.302ZM106.185 69.774L106.134 69.7374L106.1 69.7134L106.081 69.6995C103.117 67.6389 99.6567 66.6106 96.1975 66.6106C92.7371 66.6106 89.2755 67.6402 86.3145 69.6995L86.2981 69.7109L86.2615 69.7374L86.2098 69.774L86.1984 69.7815C85.404 70.343 84.6473 70.979 83.9373 71.6894C83.2021 72.425 82.5463 73.2112 81.97 74.0351L81.9625 74.0478L81.9259 74.0995C79.8804 77.0572 78.8564 80.5096 78.8564 83.9619C78.8564 87.3663 79.8476 90.7695 81.8288 93.6931C81.9082 93.7915 81.9801 93.8963 82.0457 94.006C82.5678 94.743 83.1542 95.4458 83.8049 96.1095L83.9348 96.2306C87.3208 99.6186 91.7598 101.312 96.1975 101.312C100.615 101.312 105.035 99.6351 108.412 96.2799L108.458 96.2332C111.845 92.8426 113.539 88.3998 113.539 83.9619C113.539 79.5216 111.846 75.0799 108.463 71.6945C107.748 70.979 106.985 70.338 106.185 69.774ZM108.492 64.8882H116.561C116.119 58.6951 114.15 52.9235 111.03 47.9507C107.542 49.5166 103.965 50.8075 100.329 51.8245C101.323 55.1292 102.009 58.579 102.358 62.1172C104.499 62.7191 106.569 63.644 108.492 64.8882ZM96.905 61.2793C96.5506 58.463 95.9579 55.7172 95.1483 53.08C90.9439 53.9444 86.684 54.4516 82.4165 54.6005L82.4177 64.8882H83.9033C87.6335 62.4743 91.9174 61.268 96.1975 61.268C96.4334 61.268 96.6692 61.2718 96.905 61.2793ZM77.0796 71.7474V70.2307H62.277C62.4939 74.3165 63.2064 78.2888 64.359 82.0414C67.4663 81.4042 70.6027 80.9626 73.749 80.7152C74.2005 77.5758 75.3115 74.5121 77.0796 71.7474ZM73.6154 86.0692C71.1424 86.2824 68.6782 86.6244 66.2343 87.0963C66.5874 87.9001 66.9607 88.69 67.3566 89.4647C69.822 94.3139 73.1185 98.5663 77.0796 101.918V96.1638C75.0984 93.0672 73.9433 89.5972 73.6154 86.0692ZM93.2681 48.015C92.7144 46.7557 92.1091 45.5305 91.4521 44.3444C89.0674 40.0378 86.0143 36.2447 82.4139 33.1987L82.4165 49.2541C86.0547 49.1191 89.6841 48.7053 93.2681 48.015ZM88.6348 31.7085C91.5328 34.6473 94.0424 38.0365 96.103 41.7576C96.9983 43.3753 97.8105 45.0573 98.5318 46.7936C101.678 45.9355 104.775 44.8554 107.801 43.557C107.178 42.8277 106.526 42.1236 105.849 41.446C101.179 36.7734 95.258 33.3463 88.6348 31.7085ZM77.0796 64.8882V54.6005C72.8159 54.4516 68.5584 53.9431 64.3578 53.08C63.2052 56.8327 62.4939 60.8036 62.277 64.8882H77.0796ZM42.9383 64.8882H56.9313C57.1482 60.3784 57.9124 55.9847 59.1634 51.822C55.5302 50.8062 51.9551 49.5153 48.4694 47.9507C45.3495 52.9235 43.381 58.6939 42.9383 64.8882ZM56.9313 70.2307H42.9383C43.381 76.425 45.3483 82.1966 48.4682 87.1695C51.9538 85.6036 55.5327 84.3127 59.1659 83.2982C57.9124 79.1354 57.1482 74.7418 56.9313 70.2307ZM77.0796 49.2541V33.2025C73.169 36.5122 69.9053 40.7002 67.4424 45.4687L67.3566 45.6554C66.9619 46.4277 66.5886 47.2163 66.2368 48.0176C69.8183 48.7078 73.4439 49.1179 77.0796 49.2541ZM51.6991 43.557C54.7206 44.8542 57.8153 45.933 60.9592 46.7911C61.4636 45.5785 62.0122 44.3923 62.6024 43.2352L62.7171 43.0308C64.8975 38.8062 67.6429 34.9779 70.8662 31.7072C64.2418 33.3451 58.3223 36.7722 53.6512 41.446C52.974 42.1236 52.322 42.8277 51.6991 43.557ZM60.963 88.3228C57.8191 89.1821 54.7219 90.2622 51.6978 91.5619C52.322 92.2912 52.974 92.9966 53.6512 93.6742C58.321 98.3467 64.243 101.775 70.8675 103.413C67.5912 100.089 64.8093 96.1903 62.6125 91.8849C62.0197 90.7266 61.4687 89.5379 60.963 88.3228Z" fill="#3AA697"/>
<path d="M123.814 136.822C122.876 136.822 122.056 136.616 121.354 136.203C120.657 135.784 120.114 135.203 119.725 134.459C119.336 133.71 119.141 132.837 119.141 131.839C119.141 130.795 119.333 129.892 119.716 129.131C120.1 128.364 120.634 127.774 121.318 127.361C122.009 126.942 122.817 126.732 123.743 126.732C124.705 126.732 125.522 126.954 126.195 127.396C126.874 127.839 127.381 128.47 127.717 129.29C128.06 130.11 128.207 131.087 128.16 132.22H126.567V131.653C126.549 130.479 126.31 129.603 125.85 129.025C125.39 128.441 124.705 128.149 123.796 128.149C122.823 128.149 122.082 128.461 121.575 129.087C121.067 129.712 120.814 130.609 120.814 131.777C120.814 132.904 121.067 133.778 121.575 134.397C122.082 135.017 122.805 135.327 123.743 135.327C124.375 135.327 124.923 135.182 125.39 134.893C125.856 134.604 126.222 134.188 126.487 133.645L128.001 134.167C127.629 135.011 127.068 135.666 126.319 136.132C125.575 136.592 124.741 136.822 123.814 136.822ZM120.283 132.22V130.954H127.346V132.22H120.283Z" fill="#554488"/>
<path d="M113.241 136.557V126.998H114.648V129.308L114.418 129.007C114.53 128.712 114.675 128.441 114.852 128.193C115.035 127.945 115.239 127.741 115.463 127.582C115.711 127.381 115.991 127.228 116.304 127.122C116.616 127.016 116.935 126.954 117.259 126.936C117.584 126.912 117.888 126.933 118.171 126.998V128.476C117.841 128.387 117.478 128.364 117.082 128.405C116.687 128.446 116.321 128.591 115.985 128.839C115.678 129.057 115.439 129.323 115.268 129.635C115.103 129.948 114.988 130.287 114.923 130.653C114.858 131.013 114.825 131.382 114.825 131.76V136.557H113.241Z" fill="#554488"/>
<path d="M106.681 136.822C105.731 136.822 104.911 136.607 104.221 136.176C103.536 135.746 103.008 135.15 102.636 134.388C102.264 133.627 102.079 132.754 102.079 131.769C102.079 130.765 102.267 129.886 102.645 129.131C103.023 128.376 103.557 127.789 104.247 127.37C104.937 126.945 105.749 126.732 106.681 126.732C107.637 126.732 108.46 126.948 109.151 127.378C109.841 127.803 110.369 128.396 110.735 129.158C111.107 129.913 111.292 130.783 111.292 131.769C111.292 132.766 111.107 133.645 110.735 134.406C110.363 135.161 109.832 135.754 109.142 136.185C108.451 136.61 107.631 136.822 106.681 136.822ZM106.681 135.327C107.672 135.327 108.41 134.996 108.894 134.335C109.378 133.674 109.62 132.819 109.62 131.769C109.62 130.689 109.375 129.83 108.885 129.193C108.395 128.55 107.661 128.228 106.681 128.228C106.014 128.228 105.466 128.379 105.035 128.68C104.604 128.98 104.283 129.396 104.07 129.928C103.858 130.459 103.751 131.072 103.751 131.769C103.751 132.842 103.999 133.704 104.495 134.353C104.991 135.002 105.719 135.327 106.681 135.327Z" fill="#554488"/>
<path d="M98.3785 136.557V123.546H99.954V136.557H98.3785Z" fill="#554488"/>
<path d="M91.9774 136.822C91.0805 136.822 90.3252 136.601 89.7116 136.159C89.0979 135.71 88.6318 135.105 88.3131 134.344C88.0004 133.577 87.844 132.719 87.844 131.769C87.844 130.807 88.0004 129.945 88.3131 129.184C88.6318 128.423 89.0979 127.824 89.7116 127.387C90.3311 126.951 91.0894 126.732 91.9862 126.732C92.8713 126.732 93.6325 126.954 94.2698 127.396C94.9129 127.833 95.4056 128.432 95.7479 129.193C96.0901 129.954 96.2612 130.813 96.2612 131.769C96.2612 132.724 96.0901 133.583 95.7479 134.344C95.4056 135.105 94.9129 135.71 94.2698 136.159C93.6325 136.601 92.8684 136.822 91.9774 136.822ZM87.5785 140.805V126.998H88.9858V134.034H89.1628V140.805H87.5785ZM91.7827 135.38C92.414 135.38 92.9362 135.22 93.3493 134.902C93.7623 134.583 94.0721 134.152 94.2786 133.61C94.4851 133.061 94.5884 132.447 94.5884 131.769C94.5884 131.096 94.4851 130.488 94.2786 129.945C94.078 129.402 93.7653 128.972 93.3404 128.653C92.9215 128.334 92.3875 128.175 91.7384 128.175C91.1189 128.175 90.6055 128.328 90.1984 128.635C89.7912 128.936 89.4873 129.358 89.2867 129.901C89.0861 130.438 88.9858 131.06 88.9858 131.769C88.9858 132.465 89.0831 133.087 89.2779 133.636C89.4785 134.179 89.7853 134.607 90.1984 134.919C90.6114 135.226 91.1395 135.38 91.7827 135.38Z" fill="#554488"/>
<path d="M77.0347 136.557L80.6901 131.724L77.1144 126.998H78.9908L81.6106 130.503L84.2039 126.998H86.0803L82.5046 131.724L86.1688 136.557H84.2836L81.6106 132.946L78.92 136.557H77.0347Z" fill="#554488"/>
<path d="M72.1262 136.822C71.188 136.822 70.3678 136.616 69.6656 136.203C68.9694 135.784 68.4265 135.203 68.0371 134.459C67.6476 133.71 67.4529 132.837 67.4529 131.839C67.4529 130.795 67.6447 129.892 68.0282 129.131C68.4118 128.364 68.9458 127.774 69.6302 127.361C70.3206 126.942 71.129 126.732 72.0554 126.732C73.0172 126.732 73.8344 126.954 74.5071 127.396C75.1856 127.839 75.6931 128.47 76.0294 129.29C76.3717 130.11 76.5192 131.087 76.472 132.22H74.8788V131.653C74.8611 130.479 74.6221 129.603 74.1619 129.025C73.7016 128.441 73.0172 128.149 72.1085 128.149C71.1349 128.149 70.3944 128.461 69.8869 129.087C69.3795 129.712 69.1257 130.609 69.1257 131.777C69.1257 132.904 69.3795 133.778 69.8869 134.397C70.3944 135.017 71.1172 135.327 72.0554 135.327C72.6867 135.327 73.2355 135.182 73.7016 134.893C74.1678 134.604 74.5336 134.188 74.7992 133.645L76.3127 134.167C75.9409 135.011 75.3804 135.666 74.631 136.132C73.8875 136.592 73.0526 136.822 72.1262 136.822ZM68.5947 132.22V130.954H75.6577V132.22H68.5947Z" fill="#554488"/>
<path d="M56.6437 136.557V123.812H61.6799C61.8038 123.812 61.9513 123.817 62.1224 123.829C62.2936 123.835 62.4588 123.853 62.6181 123.882C63.3085 123.989 63.8867 124.225 64.3529 124.59C64.8249 124.956 65.179 125.419 65.415 125.98C65.651 126.535 65.769 127.151 65.769 127.83C65.769 128.815 65.5123 129.671 64.999 130.397C64.4856 131.117 63.7333 131.568 62.742 131.751L62.1402 131.848H58.2192V136.557H56.6437ZM64.229 136.557L61.7153 131.37L63.2731 130.892L66.0346 136.557H64.229ZM58.2192 130.352H61.6268C61.7389 130.352 61.8658 130.346 62.0074 130.335C62.1549 130.323 62.2936 130.302 62.4234 130.273C62.8305 130.178 63.161 130.007 63.4147 129.759C63.6743 129.506 63.8631 129.211 63.9811 128.874C64.0992 128.532 64.1582 128.184 64.1582 127.83C64.1582 127.476 64.0992 127.131 63.9811 126.794C63.8631 126.452 63.6743 126.154 63.4147 125.9C63.161 125.647 62.8305 125.476 62.4234 125.387C62.2936 125.352 62.1549 125.331 62.0074 125.325C61.8658 125.313 61.7389 125.307 61.6268 125.307H58.2192V130.352Z" fill="#554488"/>
<path d="M44.3009 136.557V123.812H45.8763V129.432H52.5853V123.812H54.1608V136.557H52.5853V130.928H45.8763V136.557H44.3009Z" fill="#554488"/>
<path d="M36.8242 136.822C35.9509 136.822 35.1543 136.669 34.4345 136.362C33.7146 136.055 33.095 135.616 32.5758 135.043C32.0565 134.465 31.6553 133.769 31.372 132.955C31.0947 132.134 30.9561 131.211 30.9561 130.184C30.9561 128.827 31.198 127.653 31.6818 126.662C32.1657 125.67 32.8472 124.906 33.7264 124.369C34.6056 123.826 35.6382 123.555 36.8242 123.555C38.2522 123.555 39.4028 123.888 40.2761 124.555C41.1493 125.216 41.7512 126.122 42.0816 127.272L40.4885 127.6C40.223 126.827 39.7863 126.21 39.1785 125.75C38.5708 125.29 37.8126 125.06 36.9039 125.06C35.9539 125.054 35.1632 125.266 34.5318 125.697C33.9064 126.122 33.4343 126.721 33.1157 127.494C32.797 128.267 32.6348 129.163 32.6289 130.184C32.623 131.199 32.7793 132.09 33.098 132.857C33.4166 133.624 33.8916 134.226 34.523 134.663C35.1602 135.094 35.9539 135.312 36.9039 135.318C37.724 135.324 38.4144 135.167 38.975 134.849C39.5355 134.53 39.9692 134.07 40.2761 133.468C40.5829 132.866 40.7688 132.143 40.8337 131.299H38.1253V129.998H42.4976C42.5153 130.116 42.5242 130.258 42.5242 130.423C42.5301 130.582 42.533 130.692 42.533 130.751C42.533 131.913 42.3147 132.955 41.8781 133.875C41.4473 134.79 40.8071 135.509 39.9574 136.035C39.1136 136.56 38.0692 136.822 36.8242 136.822Z" fill="#554488"/>
</svg>
