<svg width="166" height="185" viewBox="0 0 166 185" fill="none" xmlns="http://www.w3.org/2000/svg">
<g clip-path="url(#clip0_17_289)">
<mask id="mask0_17_289" style="mask-type:luminance" maskUnits="userSpaceOnUse" x="0" y="0" width="162" height="177">
<path d="M161.727 0.528809H0.777634V176.807H161.727V0.528809Z" fill="white"/>
</mask>
<g mask="url(#mask0_17_289)">
<path d="M81.2528 8.12889C83.0947 8.1284 84.9049 8.60255 86.4997 9.5036L148.711 44.6405C150.307 45.5416 151.631 46.8376 152.552 48.3983C153.473 49.9589 153.958 51.7292 153.958 53.5313V123.805C153.958 125.607 153.473 127.377 152.552 128.938C151.631 130.498 150.307 131.794 148.711 132.695L86.4997 167.832C84.9041 168.733 83.0947 169.208 81.2524 169.208C79.4103 169.208 77.6005 168.733 76.0052 167.832L13.7936 132.695C12.1983 131.794 10.8735 130.498 9.95253 128.938C9.03153 127.377 8.54665 125.607 8.5467 123.805V53.5313C8.54668 51.7292 9.03153 49.9589 9.95253 48.3983C10.8736 46.8376 12.1983 45.5416 13.7936 44.6405L76.0052 9.5036C77.6007 8.60263 79.4106 8.12849 81.2528 8.12889ZM81.2528 0.528809C78.0472 0.530033 74.8982 1.35549 72.1214 2.92245L9.90903 38.0594C7.13619 39.6312 4.83351 41.8873 3.23112 44.6023C1.62873 47.3174 0.782725 50.3963 0.777634 53.5313V123.805C0.782889 126.94 1.62906 130.019 3.23159 132.734C4.83412 135.449 7.1369 137.705 9.90984 139.277L72.1214 174.414C74.8979 175.982 78.0471 176.807 81.2528 176.807C84.4586 176.807 87.6077 175.982 90.3842 174.414L152.596 139.277C155.369 137.706 157.673 135.449 159.276 132.735C160.878 130.019 161.725 126.94 161.73 123.805V53.5313C161.726 50.3963 160.879 47.3174 159.277 44.6024C157.674 41.8874 155.372 39.6312 152.599 38.0594L90.3875 2.92245C87.611 1.3556 84.4619 0.530145 81.2561 0.528809H81.2528Z" fill="#E19FD7"/>
</g>
<path d="M123.812 139.615V126.604H125.388V139.615H123.812Z" fill="#554488"/>
<path d="M117.319 139.88C116.381 139.88 115.56 139.673 114.858 139.26C114.162 138.842 113.619 138.26 113.23 137.517C112.84 136.767 112.646 135.894 112.646 134.897C112.646 133.853 112.837 132.95 113.221 132.189C113.604 131.421 114.138 130.831 114.823 130.418C115.513 129.999 116.322 129.79 117.248 129.79C118.21 129.79 119.027 130.011 119.7 130.454C120.378 130.896 120.886 131.528 121.222 132.348C121.564 133.168 121.712 134.145 121.665 135.278H120.072V134.711C120.054 133.537 119.815 132.661 119.355 132.082C118.894 131.498 118.21 131.206 117.301 131.206C116.328 131.206 115.587 131.519 115.08 132.144C114.572 132.77 114.318 133.667 114.318 134.835C114.318 135.962 114.572 136.835 115.08 137.455C115.587 138.074 116.31 138.384 117.248 138.384C117.879 138.384 118.428 138.24 118.894 137.951C119.36 137.661 119.726 137.245 119.992 136.703L121.505 137.225C121.134 138.069 120.573 138.723 119.824 139.19C119.08 139.65 118.245 139.88 117.319 139.88ZM113.787 135.278V134.012H120.85V135.278H113.787Z" fill="#554488"/>
<path d="M106.298 139.88C105.407 139.88 104.643 139.659 104.006 139.216C103.368 138.768 102.876 138.163 102.527 137.402C102.185 136.641 102.014 135.782 102.014 134.826C102.014 133.87 102.185 133.012 102.527 132.251C102.876 131.489 103.368 130.89 104.006 130.454C104.643 130.011 105.404 129.79 106.289 129.79C107.192 129.79 107.95 130.008 108.564 130.445C109.177 130.882 109.641 131.481 109.953 132.242C110.272 133.003 110.431 133.864 110.431 134.826C110.431 135.776 110.272 136.635 109.953 137.402C109.641 138.163 109.177 138.768 108.564 139.216C107.95 139.659 107.195 139.88 106.298 139.88ZM106.493 138.437C107.136 138.437 107.664 138.284 108.077 137.977C108.49 137.664 108.794 137.237 108.989 136.694C109.189 136.145 109.29 135.522 109.29 134.826C109.29 134.118 109.189 133.496 108.989 132.959C108.794 132.416 108.493 131.994 108.086 131.693C107.679 131.386 107.162 131.233 106.537 131.233C105.888 131.233 105.351 131.392 104.926 131.711C104.507 132.029 104.194 132.46 103.988 133.003C103.787 133.546 103.687 134.153 103.687 134.826C103.687 135.505 103.79 136.118 103.997 136.667C104.203 137.21 104.513 137.641 104.926 137.959C105.345 138.278 105.867 138.437 106.493 138.437ZM109.29 139.615V132.578H109.113V126.869H110.697V139.615H109.29Z" fill="#554488"/>
<path d="M95.9851 139.88C95.0351 139.88 94.215 139.665 93.5246 139.234C92.8401 138.803 92.312 138.207 91.9403 137.446C91.5685 136.685 91.3827 135.812 91.3827 134.826C91.3827 133.823 91.5715 132.944 91.9491 132.189C92.3268 131.433 92.8608 130.846 93.5511 130.427C94.2415 130.002 95.0528 129.79 95.9851 129.79C96.941 129.79 97.7642 130.005 98.4545 130.436C99.1449 130.861 99.673 131.454 100.039 132.215C100.411 132.97 100.596 133.841 100.596 134.826C100.596 135.823 100.411 136.703 100.039 137.464C99.6671 138.219 99.1361 138.812 98.4457 139.243C97.7553 139.668 96.9351 139.88 95.9851 139.88ZM95.9851 138.384C96.9764 138.384 97.714 138.054 98.1979 137.393C98.6817 136.732 98.9236 135.876 98.9236 134.826C98.9236 133.746 98.6788 132.888 98.189 132.251C97.6993 131.607 96.9646 131.286 95.9851 131.286C95.3184 131.286 94.7696 131.436 94.3389 131.737C93.9081 132.038 93.5865 132.454 93.3741 132.985C93.1617 133.516 93.0555 134.13 93.0555 134.826C93.0555 135.9 93.3033 136.762 93.799 137.411C94.2946 138.06 95.0233 138.384 95.9851 138.384Z" fill="#554488"/>
<path d="M88.1105 139.615L88.1193 133.499C88.1193 132.785 87.9275 132.227 87.544 131.826C87.1664 131.419 86.6737 131.215 86.0659 131.215C85.7119 131.215 85.3755 131.298 85.0569 131.463C84.7383 131.622 84.4786 131.876 84.278 132.224C84.0774 132.566 83.9771 133.006 83.9771 133.543L83.1451 133.206C83.1333 132.528 83.272 131.935 83.5611 131.427C83.8561 130.914 84.2574 130.516 84.7648 130.233C85.2723 129.949 85.8446 129.808 86.4819 129.808C87.4791 129.808 88.2639 130.112 88.8362 130.719C89.4086 131.321 89.6948 132.133 89.6948 133.153L89.6859 139.615H88.1105ZM76.6751 139.615V130.056H78.0824V132.613H78.2594V139.615H76.6751ZM82.4016 139.615L82.4105 133.56C82.4105 132.829 82.2216 132.256 81.844 131.843C81.4664 131.424 80.9648 131.215 80.3394 131.215C79.7198 131.215 79.2182 131.427 78.8347 131.852C78.4512 132.277 78.2594 132.841 78.2594 133.543L77.4274 133.047C77.4274 132.428 77.5749 131.873 77.87 131.383C78.165 130.893 78.5662 130.51 79.0737 130.233C79.5811 129.949 80.1564 129.808 80.7996 129.808C81.4428 129.808 82.0033 129.943 82.4813 130.215C82.9592 130.486 83.328 130.876 83.5876 131.383C83.8473 131.885 83.9771 132.484 83.9771 133.18L83.9682 139.615H82.4016Z" fill="#554488"/>
<path d="M65.3437 139.615V126.869H70.3799C70.5038 126.869 70.6513 126.875 70.8224 126.887C70.9935 126.893 71.1588 126.911 71.3181 126.94C72.0085 127.046 72.5867 127.282 73.0529 127.648C73.5249 128.014 73.8789 128.477 74.115 129.038C74.351 129.592 74.469 130.209 74.469 130.888C74.469 131.873 74.2123 132.729 73.699 133.454C73.1856 134.174 72.4333 134.626 71.442 134.808L70.8401 134.906H66.9192V139.615H65.3437ZM72.9289 139.615L70.4153 134.428L71.973 133.95L74.7345 139.615H72.9289ZM66.9192 133.41H70.3268C70.4389 133.41 70.5658 133.404 70.7074 133.392C70.8549 133.381 70.9936 133.36 71.1234 133.33C71.5305 133.236 71.8609 133.065 72.1147 132.817C72.3743 132.563 72.5631 132.268 72.6811 131.932C72.7991 131.59 72.8581 131.242 72.8581 130.888C72.8581 130.533 72.7991 130.188 72.6811 129.852C72.5631 129.51 72.3743 129.212 72.1147 128.958C71.8609 128.704 71.5305 128.533 71.1234 128.445C70.9936 128.409 70.8549 128.389 70.7074 128.383C70.5658 128.371 70.4389 128.365 70.3268 128.365H66.9192V133.41Z" fill="#554488"/>
<path d="M53.0009 139.615V126.869H54.5763V132.49H61.2853V126.869H62.8608V139.615H61.2853V133.985H54.5763V139.615H53.0009Z" fill="#554488"/>
<path d="M45.5242 139.88C44.6509 139.88 43.8543 139.727 43.1344 139.42C42.4146 139.113 41.795 138.673 41.2758 138.101C40.7565 137.523 40.3553 136.826 40.072 136.012C39.7947 135.192 39.656 134.269 39.656 133.242C39.656 131.885 39.898 130.71 40.3818 129.719C40.8657 128.728 41.5472 127.964 42.4264 127.427C43.3056 126.884 44.3382 126.613 45.5242 126.613C46.9521 126.613 48.1028 126.946 48.976 127.613C49.8493 128.274 50.4512 129.179 50.7816 130.33L49.1885 130.657C48.9229 129.884 48.4863 129.268 47.8785 128.808C47.2708 128.347 46.5125 128.117 45.6038 128.117C44.6538 128.111 43.8632 128.324 43.2318 128.754C42.6063 129.179 42.1343 129.778 41.8157 130.551C41.497 131.324 41.3348 132.221 41.3289 133.242C41.323 134.257 41.4793 135.148 41.798 135.915C42.1166 136.682 42.5916 137.284 43.223 137.72C43.8602 138.151 44.6538 138.369 45.6038 138.375C46.424 138.381 47.1144 138.225 47.675 137.906C48.2355 137.588 48.6692 137.127 48.976 136.526C49.2829 135.924 49.4687 135.201 49.5337 134.357H46.8253V133.056H51.1976C51.2153 133.174 51.2242 133.316 51.2242 133.481C51.2301 133.64 51.233 133.749 51.233 133.808C51.233 134.971 51.0147 136.012 50.5781 136.933C50.1473 137.847 49.5071 138.567 48.6574 139.092C47.8136 139.617 46.7692 139.88 45.5242 139.88Z" fill="#554488"/>
</g>
<path fill-rule="evenodd" clip-rule="evenodd" d="M82.5776 113.393C58.4231 113.393 38.8085 93.7425 38.8085 69.6236C38.8085 45.4985 58.4587 25.8545 82.5776 25.8545C106.703 25.8545 126.347 45.5047 126.347 69.6236C126.347 93.7487 106.696 113.393 82.5776 113.393ZM82.5776 28.8093C60.0917 28.8093 41.7943 47.1052 41.7943 69.5926C41.7943 92.0785 60.0901 110.376 82.5776 110.376C105.063 110.376 123.361 92.0801 123.361 69.5926C123.361 47.1067 105.065 28.8093 82.5776 28.8093Z" fill="#E19FD7"/>
<path fill-rule="evenodd" clip-rule="evenodd" d="M82.5776 55.4204C70.5151 55.2329 58.6104 50.0996 50.6776 41.6891C50.1092 41.0905 50.1455 40.1472 50.738 39.5789C51.3366 39.0105 52.2798 39.0468 52.8482 39.6393C60.2489 47.4814 71.3623 52.2641 82.6091 52.4213C94.2604 52.4213 103.988 48.2312 112.303 39.5728C112.872 38.9742 113.815 38.9742 114.414 39.5425C115.012 40.1109 115.012 41.0541 114.444 41.6527C105.532 50.9098 95.1079 55.4142 82.5733 55.4142L82.5776 55.4204Z" fill="#C09CF9"/>
<path fill-rule="evenodd" clip-rule="evenodd" d="M113.153 100.296C112.741 100.296 112.367 100.139 112.052 99.8246C108.715 96.2997 104.839 93.3671 100.528 91.1965C94.6386 88.2035 88.9067 86.819 82.5462 86.819C77.2859 86.819 69.0385 88.3003 64.8788 90.6585C64.8486 90.6887 64.8183 90.6887 64.7518 90.7189C60.344 92.7324 56.1539 95.7555 52.6289 99.4438C52.0605 100.042 51.1173 100.073 50.5187 99.474C49.9201 98.9057 49.8899 97.9624 50.4885 97.3638C54.2674 93.4276 58.7417 90.217 63.4639 88.0404C68.1257 85.3921 76.8143 83.8199 82.5461 83.8199C89.4087 83.8199 95.5518 85.3315 101.882 88.5422C106.514 90.9062 110.667 94.0203 114.229 97.7992C114.797 98.3978 114.761 99.341 114.168 99.9094C113.914 100.163 113.54 100.284 113.159 100.284L113.153 100.296Z" fill="#C09CF9"/>
<path fill-rule="evenodd" clip-rule="evenodd" d="M82.5776 113.393C70.9867 113.393 61.8872 94.1527 61.8872 69.6236C61.8872 45.0945 70.987 25.8545 82.5776 25.8545C94.1682 25.8545 103.268 45.0945 103.268 69.6236C103.268 94.1527 94.1682 113.393 82.5776 113.393ZM82.5776 28.8093C72.976 28.8093 64.8793 47.4798 64.8793 69.5926C64.8793 91.6977 72.9754 110.376 82.5776 110.376C92.1798 110.376 100.276 91.7055 100.276 69.5926C100.276 47.4875 92.1496 28.8093 82.5776 28.8093Z" fill="#C09CF9"/>
<path fill-rule="evenodd" clip-rule="evenodd" d="M82.9646 112.443C82.4562 112.443 82.023 111.805 82.023 110.98V29.163C82.023 28.3732 82.4336 27.7003 82.9646 27.7003C83.4957 27.7003 83.9062 28.3381 83.9062 29.163V111.01C83.8874 111.8 83.4769 112.443 82.9646 112.443Z" fill="#C09CF9"/>
<path fill-rule="evenodd" clip-rule="evenodd" d="M124.872 71.1049H40.2217C39.4054 71.1049 38.7101 70.4459 38.7101 69.5933C38.7101 68.7408 39.3691 68.0818 40.2217 68.0818H124.841C125.657 68.0818 126.352 68.7408 126.352 69.5933C126.352 70.4459 125.694 71.1049 124.872 71.1049Z" fill="#C09CF9"/>
<path d="M83.4768 63.5187H82.7293V61.3432H83.4768V63.5187ZM83.4768 67.8708H82.7293V65.6943H83.4768V67.8708ZM83.4768 76.574H82.7293V74.398H83.4768V76.574ZM83.4768 72.222H82.7293V70.0464H83.4768V72.222ZM83.4768 59.1671H82.7293V56.9911H83.4768V59.1671ZM83.4768 37.4091H82.7293V35.233H83.4768V37.4091ZM83.4768 46.1123H82.7293V43.9363H83.4768V46.1123ZM83.4768 50.4639H82.7293V48.2879H83.4768V50.4639ZM83.4768 54.8155H82.7293V52.6395H83.4768V54.8155ZM49.924 76.5115C53.9797 73.5989 57.856 68.5984 61.6153 63.322V79.488H44.3749C45.8377 78.8767 48.0872 77.8305 49.924 76.5115ZM64.2344 59.5973C70.6079 50.4747 76.6298 41.8586 82.9936 41.7602H83.2114C89.5244 41.8586 95.3486 50.4785 101.512 59.6053C101.717 59.9083 101.923 60.2123 102.128 60.5159V79.488H83.4768V78.7496H82.7293V79.488H62.3628V62.2665C62.9895 61.3785 63.6136 60.4857 64.2344 59.5973ZM115.757 76.8423C117.296 77.9477 119.125 78.8611 120.538 79.488H102.876V61.6189C106.971 67.6477 111.208 73.5759 115.757 76.8423ZM122.977 79.488C122.504 79.3171 118.799 77.9439 116.127 76.0248C111.477 72.686 107.105 66.4204 102.876 60.17V57.8109H102.128V59.0645C102.113 59.0415 102.097 59.0184 102.082 58.9958C95.8856 49.8206 90.0256 41.1503 83.4768 40.8299V39.5847H82.7293V40.8299C76.1327 41.148 70.0772 49.8093 63.673 58.9756C63.2376 59.5982 62.8008 60.2231 62.3628 60.8472V59.1337H61.6153V61.9079C57.7222 67.4129 53.7129 72.7071 49.554 75.694C46.7092 77.7373 42.6932 79.1614 42.6528 79.175L42.7223 79.488H42.4764V80.4292H123.453V79.488H122.977Z" fill="#303E5C" stroke="#554488"/>
<path fill-rule="evenodd" clip-rule="evenodd" d="M82.9646 114.326C58.5422 114.326 38.7101 94.4581 38.7101 70.0717C38.7101 45.679 58.5782 25.8171 82.9646 25.8171C107.357 25.8171 127.219 45.6853 127.219 70.0717C127.219 94.4643 107.351 114.326 82.9646 114.326ZM82.9646 28.8048C60.2293 28.8048 41.729 47.3035 41.729 70.0404C41.729 92.7757 60.2278 111.276 82.9646 111.276C105.7 111.276 124.2 92.7772 124.2 70.0404C124.2 47.3051 105.701 28.8048 82.9646 28.8048Z" fill="#C09CF9"/>
<defs>
<clipPath id="clip0_17_289">
<rect width="164.374" height="183.942" fill="white" transform="translate(0.777634 0.528809)"/>
</clipPath>
</defs>
</svg>
